<svg xmlns="http://www.w3.org/2000/svg" width="144.972" height="98.817" viewBox="0 0 144.972 98.817">
  <g id="Group_2" data-name="Group 2" transform="translate(-789.752 -1532.765)">
    <g id="Anniversary" transform="translate(791 1534)">
      <g id="Group" transform="translate(30.983)">
        <path id="Path" d="M0,67.516,80.9,0" transform="translate(0.215 11.446)" fill="none" stroke="#23364e" stroke-linecap="round" stroke-linejoin="round" stroke-miterlimit="10" stroke-width="2.582"/>
        <path id="Path-2" data-name="Path" d="M0,95.572,30.509,0" transform="translate(22.462 0.387)" fill="none" stroke="#23364e" stroke-linecap="round" stroke-linejoin="round" stroke-miterlimit="10" stroke-width="2.582"/>
        <path id="Path-3" data-name="Path" d="M80.9,67.516,0,0" transform="translate(0.215 11.446)" fill="none" stroke="#23364e" stroke-linecap="round" stroke-linejoin="round" stroke-miterlimit="10" stroke-width="2.582"/>
        <path id="Path-4" data-name="Path" d="M30.509,95.572,0,0" transform="translate(28.401 0.387)" fill="none" stroke="#23364e" stroke-linecap="round" stroke-linejoin="round" stroke-miterlimit="10" stroke-width="2.582"/>
      </g>
      <path id="Shape" d="M7.315,42.687a25.037,25.037,0,0,1,0-35.372A25.06,25.06,0,0,1,38.728,4.088,25.06,25.06,0,0,1,70.141,7.315a25.089,25.089,0,0,1,0,35.372L38.728,74.1Z" transform="translate(32.36 16.18)" fill="#faffff"/>
      <path id="Path-5" data-name="Path" d="M23.667,0H0L6.326,9.983,23.667,0Z" transform="translate(118.766 48.84)" fill="#6dc7b6" stroke="#23364e" stroke-linecap="round" stroke-linejoin="round" stroke-miterlimit="10" stroke-width="2.582"/>
      <path id="Path-6" data-name="Path" d="M6.326,0,0,10.026H23.667Z" transform="translate(118.766 38.814)" fill="#e8595a" stroke="#23364e" stroke-linecap="round" stroke-linejoin="round" stroke-miterlimit="10" stroke-width="2.582"/>
      <path id="Path-7" data-name="Path" d="M121.994.215H0" transform="translate(4.819 48.625)" fill="none" stroke="#23364e" stroke-linecap="round" stroke-linejoin="round" stroke-miterlimit="10" stroke-width="2.582"/>
      <path id="Path-8" data-name="Path" d="M18.848,0h-4.69L12.049,3.744,9.295,0H0L8.434,8.778h18.8Z" transform="translate(0.043 40.062)" fill="#6dc7b6" stroke="#23364e" stroke-linecap="round" stroke-linejoin="round" stroke-miterlimit="10" stroke-width="2.582"/>
      <path id="Path-9" data-name="Path" d="M18.848,8.735H0L8.434,0h18.8Z" transform="translate(0.043 48.84)" fill="#e8595a" stroke="#23364e" stroke-linecap="round" stroke-linejoin="round" stroke-miterlimit="10" stroke-width="2.582"/>
      <path id="Path-10" data-name="Path" d="M58.544,5.357a18.388,18.388,0,0,0-25.948,0L31.951,6l-.645-.645A18.348,18.348,0,0,0,5.357,31.305l26.55,26.55,26.55-26.55A18.31,18.31,0,0,0,58.544,5.357Z" transform="translate(39.524 22.785)" fill="#6dc7b6" stroke="#23364e" stroke-miterlimit="10" stroke-width="2.582"/>
      <path id="Path-11" data-name="Path" d="M12.952,0A15.282,15.282,0,0,0,4.3,4.26,14.842,14.842,0,0,0,0,13.383" transform="translate(46.646 29.95)" fill="none" stroke="#509a8f" stroke-linecap="round" stroke-linejoin="round" stroke-miterlimit="10" stroke-width="2.582"/>
      <path id="Path-12" data-name="Path" d="M1.033,0A12.33,12.33,0,0,1,0,2.453H6.2A23.706,23.706,0,0,0,6.455,0Z" transform="translate(102.587 47.593)" fill="#585963" opacity="0.5"/>
      <path id="Path-13" data-name="Path" d="M0,.215H18.5" transform="translate(62.395 48.625)" fill="none" stroke="#509a8f" stroke-linecap="round" stroke-linejoin="round" stroke-miterlimit="10" stroke-width="2.582"/>
    </g>
  </g>
</svg>
