<svg xmlns="http://www.w3.org/2000/svg" xmlns:xlink="http://www.w3.org/1999/xlink" width="50" height="103" viewBox="0 0 50 103">
  <defs>
    <clipPath id="clip-path">
      <path id="Clip_6" data-name="Clip 6" d="M0,103H-50V0H0Z" fill="none"/>
    </clipPath>
  </defs>
  <g id="Candle_Icon" data-name="Candle Icon" transform="translate(50)">
    <path id="Fill_1" data-name="Fill 1" d="M-18.5,37A18.5,18.5,0,0,0,0,18.5,18.5,18.5,0,0,0-18.5,0,18.5,18.5,0,0,0-37,18.5,18.5,18.5,0,0,0-18.5,37Z" transform="translate(-6 2)" fill="#d3eee9"/>
    <path id="Stroke_3" data-name="Stroke 3" d="M-37,18.5A18.5,18.5,0,0,0-18.5,37,18.5,18.5,0,0,0,0,18.5,18.5,18.5,0,0,0-18.5,0,18.5,18.5,0,0,0-37,18.5Z" transform="translate(-6 2)" fill="none"/>
    <path id="Clip_6-2" data-name="Clip 6" d="M0,103H-50V0H0Z" fill="none"/>
    <g id="Candle_Icon-2" data-name="Candle Icon" clip-path="url(#clip-path)">
      <path id="Fill_5" data-name="Fill 5" d="M0,59H-26V0H0Z" transform="translate(-12 42)" fill="#6dc7b6"/>
      <path id="Stroke_7" data-name="Stroke 7" d="M0,59H-26V0H0Z" transform="translate(-12 42)" fill="none"/>
      <path id="Fill_8" data-name="Fill 8" d="M-2.638,9.2a3.07,3.07,0,0,0-3.25-2.85h0A3.07,3.07,0,0,0-9.138,9.2V23.15A3.07,3.07,0,0,1-12.389,26a3.07,3.07,0,0,1-3.25-2.85V9.2a3.069,3.069,0,0,0-3.25-2.85,3.07,3.07,0,0,0-3.25,2.85v3.8a3.07,3.07,0,0,1-3.25,2.85A3.711,3.711,0,0,1-26,15.8V0H0V15.8a2.978,2.978,0,0,1-2.638-2.8V9.2" transform="translate(-12 45)" fill="#509a8f"/>
      <g id="Group_11" data-name="Group 11" transform="translate(-11 42)">
        <path id="Fill_9" data-name="Fill 9" d="M-26.488,9.158V0H-.031L0,9.158A3.1,3.1,0,0,0-3.311,6.323,3.1,3.1,0,0,0-6.622,9.158V23.035A3.1,3.1,0,0,1-9.933,25.87a3.1,3.1,0,0,1-3.311-2.835V9.158a3.1,3.1,0,0,0-3.311-2.835,3.1,3.1,0,0,0-3.311,2.835v3.783a3.1,3.1,0,0,1-3.311,2.836,3.1,3.1,0,0,1-3.311-2.836V9.158" transform="translate(-0.374 0.067)" fill="#d3eee9"/>
        <path id="Stroke_10" data-name="Stroke 10" d="M-26.488,9.158V0H-.031L0,9.158A3.1,3.1,0,0,0-3.311,6.323,3.1,3.1,0,0,0-6.622,9.158V23.035A3.1,3.1,0,0,1-9.933,25.87a3.1,3.1,0,0,1-3.311-2.835V9.158a3.1,3.1,0,0,0-3.311-2.835,3.1,3.1,0,0,0-3.311,2.835v3.783a3.1,3.1,0,0,1-3.311,2.836,3.1,3.1,0,0,1-3.311-2.836V9.158" transform="translate(-0.374 0.067)" fill="none" stroke="#23364e" stroke-miterlimit="10" stroke-width="3"/>
      </g>
      <path id="Fill_12" data-name="Fill 12" d="M-41.321,6H-8.679L0,0H-50Z" transform="translate(0 96)" fill="#23364e"/>
      <path id="Stroke_13" data-name="Stroke 13" d="M-.189,11V0" transform="translate(-24.811 32)" fill="none" stroke="#fff" stroke-miterlimit="10" stroke-width="6"/>
      <path id="Fill_14" data-name="Fill 14" d="M0,0V5.915A13.587,13.587,0,0,1-1.5,6,13.585,13.585,0,0,1-3,5.915V0Z" transform="translate(-24 31)" fill="#585963"/>
      <path id="Fill_15" data-name="Fill 15" d="M-6.5,0c0,6.335-6.5,7.135-6.5,13.544A6.478,6.478,0,0,0-6.5,20,6.478,6.478,0,0,0,0,13.544C0,7.135-6.5,6.335-6.5,0" transform="translate(-18 13)" fill="#e8595a"/>
      <path id="Stroke_16" data-name="Stroke 16" d="M-6.5,0c0,6.335-6.5,7.135-6.5,13.544A6.478,6.478,0,0,0-6.5,20,6.478,6.478,0,0,0,0,13.544C0,7.135-6.5,6.335-6.5,0Z" transform="translate(-18 13)" fill="none" stroke="#23364e" stroke-miterlimit="10" stroke-width="3"/>
      <path id="Fill_17" data-name="Fill 17" d="M0,5H-26V0H0Z" transform="translate(-12 91)" fill="#509a8f"/>
      <path id="Stroke_18" data-name="Stroke 18" d="M0,54H-27V0H0Z" transform="translate(-11 42)" fill="none" stroke="#23364e" stroke-linecap="round" stroke-linejoin="round" stroke-miterlimit="10" stroke-width="3"/>
      <path id="Stroke_19" data-name="Stroke 19" d="M-.189,7V0" transform="translate(-24.811 2)" fill="none" stroke="#23364e" stroke-linecap="round" stroke-miterlimit="10" stroke-width="3"/>
      <path id="Stroke_20" data-name="Stroke 20" d="M-4,6,0,0" transform="translate(-14 5)" fill="none" stroke="#23364e" stroke-linecap="round" stroke-miterlimit="10" stroke-width="3"/>
      <path id="Stroke_21" data-name="Stroke 21" d="M-6,4,0,0" transform="translate(-7 13)" fill="none" stroke="#23364e" stroke-linecap="round" stroke-miterlimit="10" stroke-width="3"/>
      <path id="Stroke_22" data-name="Stroke 22" d="M-7,.189H0" transform="translate(-4 24.811)" fill="none" stroke="#23364e" stroke-linecap="round" stroke-miterlimit="10" stroke-width="3"/>
      <path id="Stroke_23" data-name="Stroke 23" d="M-6,0,0,4" transform="translate(-7 31)" fill="none" stroke="#23364e" stroke-linecap="round" stroke-miterlimit="10" stroke-width="3"/>
      <path id="Stroke_24" data-name="Stroke 24" d="M0,0-6,4" transform="translate(-37 31)" fill="none" stroke="#23364e" stroke-linecap="round" stroke-miterlimit="10" stroke-width="3"/>
      <path id="Stroke_25" data-name="Stroke 25" d="M0,.189H-7" transform="translate(-40 24.811)" fill="none" stroke="#23364e" stroke-linecap="round" stroke-miterlimit="10" stroke-width="3"/>
      <path id="Stroke_26" data-name="Stroke 26" d="M0,4-6,0" transform="translate(-38 13)" fill="none" stroke="#23364e" stroke-linecap="round" stroke-miterlimit="10" stroke-width="3"/>
      <path id="Stroke_27" data-name="Stroke 27" d="M0,6-4,0" transform="translate(-33 5)" fill="none" stroke="#23364e" stroke-linecap="round" stroke-miterlimit="10" stroke-width="3"/>
    </g>
  </g>
</svg>
