<svg id="CNN_Logo" data-name="CNN Logo" xmlns="http://www.w3.org/2000/svg" width="61.875" height="28.875" viewBox="0 0 61.875 28.875">
  <path id="Path" d="M19.25,8.25H14.438a6.188,6.188,0,0,0,0,12.375h5.383a.8.8,0,0,0,.8-.8V5.617A5.617,5.617,0,0,1,31.116,2.832l6.009,10.512V5.617A5.617,5.617,0,0,1,47.616,2.832l6.009,10.512V0h3.438l.688.688L58.438,0h3.438V23.258a5.617,5.617,0,0,1-10.491,2.784L45.375,15.531v7.727a5.617,5.617,0,0,1-10.491,2.784L28.875,15.531v7.727a5.617,5.617,0,0,1-5.617,5.617H14.438A14.438,14.438,0,0,1,14.438,0H19.25V3.438l-.687.688.688.688Z" fill="#292d34"/>
  <path id="Path-2" data-name="Path" d="M15.125,4.125H10.313a10.313,10.313,0,0,0,0,20.625h8.821a1.492,1.492,0,0,0,1.492-1.492V5.617a1.492,1.492,0,0,1,2.784-.743L34.341,24a1.492,1.492,0,0,0,2.784-.743V5.617a1.492,1.492,0,0,1,2.784-.743L50.841,24a1.492,1.492,0,0,0,2.784-.743V0" transform="translate(4.125)" fill="none" stroke="#fff" stroke-miterlimit="10" stroke-width="1.375"/>
</svg>
