<svg xmlns="http://www.w3.org/2000/svg" xmlns:xlink="http://www.w3.org/1999/xlink" width="252.151" height="216.665" viewBox="0 0 252.151 216.665">
  <defs>
    <clipPath id="clip-path">
      <path id="Clip_13" data-name="Clip 13" d="M24.015.772A48.888,48.888,0,0,0,13.159,4.806h0C8.554,7.038,5.274,8.537,3.8,13.125h0A77.062,77.062,0,0,0,.609,28.7h0c-1.625,15.385.524,30.809.473,46.2h0a8.751,8.751,0,0,0,.789,4.448h0c1.521,2.681,5.653,2.719,8.629,2.715h0l29.429-.044h0a58.384,58.384,0,0,1,11.031,1.1h0a7.078,7.078,0,0,0,7.54-3.406h0c1.465-2.44,1.576-5.291,1.733-8.033h0A150.764,150.764,0,0,1,65.487,40h0c.816-2.942,2.248-6.79,3.36-10.836h0c1.845-6.712,2.8-13.579-1.379-18.151h0c-1.888-2.065-5.253-3.5-8.005-4.525h0C54.093,4.492,48.6,1.812,42.855.943h0A73.869,73.869,0,0,0,31.923,0h0a37.407,37.407,0,0,0-7.908.772" transform="translate(0.403 0.211)" fill="none"/>
    </clipPath>
    <clipPath id="clip-path-3">
      <path id="Clip_25" data-name="Clip 25" d="M80.253,7.221a47.93,47.93,0,0,0-19.03,26.527h0c-2.837,9.878-2.748,20.728-7.779,29.7h0C46.736,75.416,33.549,79.589,22.355,86.068h0c-5.211,3.015-10.219,6.591-13.865,11.367h0a36.523,36.523,0,0,0-5.65,11.243h0c-5.68,18.044-2.753,40.668,7.983,56.148h0c15.388,22.186,37.959,30.983,63.54,36.123h0a378.24,378.24,0,0,0,87.47,7.176h0c10.022-.346,20.184-.781,30.072-2.508h0c21.374-3.755,41.655-12.476,54.028-31.09h0c8.8-13.237,8.628-30.431-2.9-42.135h0c-8.993-9.131-12.949-22.908-8.7-35.2h0c2.6-7.517,7.823-13.98,9.986-21.63h0c4.463-15.8-5.4-32.5-18.364-42.652h0a55.978,55.978,0,0,0-17.962-9.732h0c-9.11-2.782-18.73-2.54-28.353-2.3h0c-9.476.238-18.956.476-27.955-2.174h0C137.773,14.605,126.35,3.956,112.173.876h0A38.954,38.954,0,0,0,103.9,0h0A42.948,42.948,0,0,0,80.253,7.221Z" transform="translate(0.693 0.65)" fill="none"/>
    </clipPath>
  </defs>
  <g id="Group_4" data-name="Group 4" transform="translate(-105.692 -64.335)">
    <g id="Group_72" data-name="Group 72" transform="translate(105 65)">
      <g id="Group_11" data-name="Group 11" transform="translate(0 7)">
        <path id="Fill_1" data-name="Fill 1" d="M248.731,170.229c5.793-12.4,4.436-26.989-5.7-37.318-8.992-9.167-12.949-23-8.7-35.339,2.6-7.546,7.824-14.035,9.986-21.716,4.463-15.858-5.4-32.626-18.364-42.819a55.9,55.9,0,0,0-17.961-9.771c-18.082-5.543-38.172.872-56.308-4.489-13.914-4.113-25.336-14.8-39.512-17.9A42.046,42.046,0,0,0,80.253,7.25a48.112,48.112,0,0,0-19.03,26.631C58.385,43.8,58.475,54.691,53.444,63.7,46.736,75.713,33.549,79.9,22.355,86.406c-5.211,3.028-10.219,6.618-13.865,11.413a36.723,36.723,0,0,0-5.65,11.288c-5.68,18.115-2.753,40.829,7.983,56.369a75.115,75.115,0,0,0,21.453,20.778" transform="translate(0.692 0.653)" fill="#e1f4fd"/>
        <path id="Fill_3" data-name="Fill 3" d="M44.136,51.421a13.836,13.836,0,0,1-6.527,3.742c-4.839,1.1-9.385-1.022-13.422-3.471-4.314-2.618-8.616-5.27-12.685-8.257-2.909-2.137-5.888-4.406-7.7-7.6-2.1-3.7-2.225-8.151-1.8-12.282C2.3,20.733.98,18.2.4,15.511-.731,10.274.426,4.091,5.319,1.088c2.5-1.534,5.111-1.307,7.74-.179a51.2,51.2,0,0,0,6,2.664c4.49,1.273,9.36-.48,13.757-1.383,3.185-.654,6.667-1,9.807.052,3.5,1.168,5.158,3.72,7.067,6.675,1.632,2.525,4.107,4.431,6.077,6.677a11.763,11.763,0,0,1,2.556,10.7c-1.3,5.692-4.584,10.585-7.434,15.579-1.821,3.193-3.947,6.84-6.755,9.553" transform="translate(104.562 27.353)" fill="#0b2d4e"/>
        <path id="Fill_5" data-name="Fill 5" d="M37.4,32.8c5.812-8.94,9.428-19.911,4.378-30A4.435,4.435,0,0,0,39.562.3c-2.338-.776-5.51.058-7.543,1.249-7.052,4.129-11.367,11.9-15.328,18.816C12.575,27.548,9,35.026,4.864,42.2A40.013,40.013,0,0,0,.6,51.276a14.334,14.334,0,0,0,.2,8.836c4.643,11.967,17.41-2.692,21.3-7.12A177.153,177.153,0,0,0,37.4,32.8" transform="translate(75.282 100.017)" fill="#d63722"/>
        <path id="Fill_7" data-name="Fill 7" d="M32.447,33.092a7.585,7.585,0,0,1-2.169,1.627,9.483,9.483,0,0,1-6.915.3,22.438,22.438,0,0,1-6.22-3.338C11.921,28,5.463,23.131,2.355,17.47.439,13.98-.983,9.861.851,6.052A10.65,10.65,0,0,1,9.289.019a1.686,1.686,0,0,1,.886.088,1.776,1.776,0,0,1,.682.739,55.418,55.418,0,0,0,3.99,6.5,23.793,23.793,0,0,0,6.3,5.188c3.828,2.318,8.031,4.029,11.632,6.686,2.6,1.919,2.668,6.237,2.035,9.232a9.8,9.8,0,0,1-2.363,4.644" transform="translate(109.196 45.532)" fill="#061f33"/>
        <path id="Fill_9" data-name="Fill 9" d="M68.663,29.137C70.5,22.431,71.458,15.569,67.288,11,65.4,8.938,62.049,7.5,59.3,6.481,53.949,4.488,48.474,1.81,42.74.941,36.7.026,29.974-.538,23.95.771A48.659,48.659,0,0,0,13.124,4.8C8.531,7.031,5.26,8.53,3.786,13.113A77.178,77.178,0,0,0,.606,28.675c-1.62,15.372.524,30.783.472,46.162a8.746,8.746,0,0,0,.787,4.443C3.382,81.959,7.5,82,10.47,81.993l29.35-.044a58.134,58.134,0,0,1,11,1.1,7.054,7.054,0,0,0,7.52-3.4c1.46-2.438,1.572-5.286,1.729-8.026a150.839,150.839,0,0,1,5.241-31.655c.814-2.94,2.242-6.784,3.351-10.827" transform="translate(102.192 92.239)" fill="#ea4327"/>
      </g>
      <g id="Group_18" data-name="Group 18" transform="translate(102 98)">
        <g id="Group_14" data-name="Group 14">
          <path id="Clip_13-2" data-name="Clip 13" d="M24.015.772A48.888,48.888,0,0,0,13.159,4.806h0C8.554,7.038,5.274,8.537,3.8,13.125h0A77.062,77.062,0,0,0,.609,28.7h0c-1.625,15.385.524,30.809.473,46.2h0a8.751,8.751,0,0,0,.789,4.448h0c1.521,2.681,5.653,2.719,8.629,2.715h0l29.429-.044h0a58.384,58.384,0,0,1,11.031,1.1h0a7.078,7.078,0,0,0,7.54-3.406h0c1.465-2.44,1.576-5.291,1.733-8.033h0A150.764,150.764,0,0,1,65.487,40h0c.816-2.942,2.248-6.79,3.36-10.836h0c1.845-6.712,2.8-13.579-1.379-18.151h0c-1.888-2.065-5.253-3.5-8.005-4.525h0C54.093,4.492,48.6,1.812,42.855.943h0A73.869,73.869,0,0,0,31.923,0h0a37.407,37.407,0,0,0-7.908.772" transform="translate(0.403 0.211)" fill="none"/>
          <g id="Group_14-2" data-name="Group 14" clip-path="url(#clip-path)">
            <path id="Fill_12" data-name="Fill 12" d="M25.583,12.4c2.077-3.337,2.548-7.508-.172-10.723C24.167.206,21.968.041,20.086.007A46.819,46.819,0,0,0,9.068,1.123C5.631,1.891,2.127,3.192.638,6.508a7.971,7.971,0,0,0,.737,7.565,9.738,9.738,0,0,0,5.968,4.119A21.568,21.568,0,0,0,19.7,17.457a12.736,12.736,0,0,0,5.88-5.058" transform="translate(19.934 -2.549)" fill="#d63722"/>
          </g>
        </g>
        <g id="Group_17" data-name="Group 17">
          <path id="Clip_16-2" data-name="Clip 16" d="M24.015.772A48.888,48.888,0,0,0,13.159,4.806h0C8.554,7.038,5.274,8.537,3.8,13.125h0A77.062,77.062,0,0,0,.609,28.7h0c-1.625,15.385.524,30.809.473,46.2h0a8.751,8.751,0,0,0,.789,4.448h0c1.521,2.681,5.653,2.719,8.629,2.715h0l29.429-.044h0a58.384,58.384,0,0,1,11.031,1.1h0a7.078,7.078,0,0,0,7.54-3.406h0c1.465-2.44,1.576-5.291,1.733-8.033h0A150.764,150.764,0,0,1,65.487,40h0c.816-2.942,2.248-6.79,3.36-10.836h0c1.845-6.712,2.8-13.579-1.379-18.151h0c-1.888-2.065-5.253-3.5-8.005-4.525h0C54.093,4.492,48.6,1.812,42.855.943h0A73.869,73.869,0,0,0,31.923,0h0a37.407,37.407,0,0,0-7.908.772" transform="translate(0.403 0.211)" fill="none"/>
          <g id="Group_17-2" data-name="Group 17" clip-path="url(#clip-path)">
            <path id="Fill_15" data-name="Fill 15" d="M2.807,49.585a47.9,47.9,0,0,0,12.57,3.507,172.534,172.534,0,0,0,36.532,1.847c2.609-.124,5.438-.383,7.363-2.143a10.1,10.1,0,0,0,2.586-5.112c1.635-6.392,1.612-13.073,1.578-19.669q-.04-7.72-.078-15.441c-.01-1.791,1.158-12.7-1.64-12.573a1.59,1.59,0,0,0-.823.344,9.2,9.2,0,0,0-2.758,4.229c-2.039,4.943-3.751,12.857-8,16.319-4.457,3.635-9.592,5.327-14.994,7.07C25.78,30.987,15.33,32.3,7.4,38.522c-1.322,1.037-2.581,2.185-3.8,3.336C2.49,42.893.979,43.965.32,45.413-.707,47.669.9,48.691,2.807,49.585" transform="translate(4.181 32.131)" fill="#d63722"/>
          </g>
        </g>
      </g>
      <g id="Group_23" data-name="Group 23" transform="translate(122 41)">
        <path id="Fill_19" data-name="Fill 19" d="M0,1.846C3.928,2.121,7.754,1.3,11.6.552A38.78,38.78,0,0,1,17.48.009q1.477-.03,2.956.043a18.586,18.586,0,0,1,2.97.323,8.352,8.352,0,0,1,5.06,3.211,5.685,5.685,0,0,1,.829,2.948,20.42,20.42,0,0,0,.21,2.875c.293,1.881,1.978,3.165,2.865,4.972a7.48,7.48,0,0,1,.639,2.9,20.158,20.158,0,0,1-.148,2.934c.038-1.931.1-3.976-.812-5.672a16.352,16.352,0,0,0-1.7-2.337,6.506,6.506,0,0,1-1.391-2.675,16.584,16.584,0,0,1-.292-2.957,5.037,5.037,0,0,0-.752-2.618,5.349,5.349,0,0,0-.927-1.017A7.947,7.947,0,0,0,25.858,2.1a8.382,8.382,0,0,0-2.608-1.011A17.971,17.971,0,0,0,20.4.749Q18.946.661,17.489.675a46.892,46.892,0,0,0-5.8.433c-1.915.279-3.858.658-5.813.832A25.829,25.829,0,0,1,0,1.846" transform="translate(0.638 0.044)" fill="#73b8d4"/>
        <path id="Fill_21" data-name="Fill 21" d="M38.924,38.056q2.217,4,4.39,8.02c2.928,5.45,8.365,17.562-.338,20.554-4.385,1.508-6.894.034-9.792-3.159A184.545,184.545,0,0,1,5.457,23.335C2.7,17.929-4.624,3.842,4.271.623a10.812,10.812,0,0,1,8.676.634,17.507,17.507,0,0,1,3.29,2.426c6.418,5.72,10.99,13.1,15.056,20.585,2.513,4.626,5.086,9.2,7.632,13.788" transform="translate(31.681 64.296)" fill="#ea4327"/>
      </g>
      <g id="Group_30" data-name="Group 30" transform="translate(0 7)">
        <g id="Group_26" data-name="Group 26">
          <path id="Clip_25-2" data-name="Clip 25" d="M80.253,7.221a47.93,47.93,0,0,0-19.03,26.527h0c-2.837,9.878-2.748,20.728-7.779,29.7h0C46.736,75.416,33.549,79.589,22.355,86.068h0c-5.211,3.015-10.219,6.591-13.865,11.367h0a36.523,36.523,0,0,0-5.65,11.243h0c-5.68,18.044-2.753,40.668,7.983,56.148h0c15.388,22.186,37.959,30.983,63.54,36.123h0a378.24,378.24,0,0,0,87.47,7.176h0c10.022-.346,20.184-.781,30.072-2.508h0c21.374-3.755,41.655-12.476,54.028-31.09h0c8.8-13.237,8.628-30.431-2.9-42.135h0c-8.993-9.131-12.949-22.908-8.7-35.2h0c2.6-7.517,7.823-13.98,9.986-21.63h0c4.463-15.8-5.4-32.5-18.364-42.652h0a55.978,55.978,0,0,0-17.962-9.732h0c-9.11-2.782-18.73-2.54-28.353-2.3h0c-9.476.238-18.956.476-27.955-2.174h0C137.773,14.605,126.35,3.956,112.173.876h0A38.954,38.954,0,0,0,103.9,0h0A42.948,42.948,0,0,0,80.253,7.221Z" transform="translate(0.693 0.65)" fill="none"/>
          <g id="Group_26-2" data-name="Group 26" clip-path="url(#clip-path-3)">
            <path id="Fill_24" data-name="Fill 24" d="M162.008,34.162,0,21.059V6.942L261.114,0V6.942Z" transform="translate(-5.163 165.649)" fill="#8bd4ea"/>
          </g>
        </g>
        <g id="Group_29" data-name="Group 29">
          <path id="Clip_28-2" data-name="Clip 28" d="M80.253,7.221a47.93,47.93,0,0,0-19.03,26.527h0c-2.837,9.878-2.748,20.728-7.779,29.7h0C46.736,75.416,33.549,79.589,22.355,86.068h0c-5.211,3.015-10.219,6.591-13.865,11.367h0a36.523,36.523,0,0,0-5.65,11.243h0c-5.68,18.044-2.753,40.668,7.983,56.148h0c15.388,22.186,37.959,30.983,63.54,36.123h0a378.24,378.24,0,0,0,87.47,7.176h0c10.022-.346,20.184-.781,30.072-2.508h0c21.374-3.755,41.655-12.476,54.028-31.09h0c8.8-13.237,8.628-30.431-2.9-42.135h0c-8.993-9.131-12.949-22.908-8.7-35.2h0c2.6-7.517,7.823-13.98,9.986-21.63h0c4.463-15.8-5.4-32.5-18.364-42.652h0a55.978,55.978,0,0,0-17.962-9.732h0c-9.11-2.782-18.73-2.54-28.353-2.3h0c-9.476.238-18.956.476-27.955-2.174h0C137.773,14.605,126.35,3.956,112.173.876h0A38.954,38.954,0,0,0,103.9,0h0A42.948,42.948,0,0,0,80.253,7.221Z" transform="translate(0.693 0.65)" fill="none"/>
          <g id="Group_29-2" data-name="Group 29" clip-path="url(#clip-path-3)">
            <path id="Fill_27" data-name="Fill 27" d="M162.028,23.629,0,14.117V0H261.114Z" transform="translate(-5.164 165.649)" fill="#73b8d4"/>
          </g>
        </g>
      </g>
      <g id="Group_71" data-name="Group 71" transform="translate(7)">
        <path id="Fill_31" data-name="Fill 31" d="M11.561,6.4q1.152-.194,2.307-.373,5.618-.868,11.183-2.057A192.776,192.776,0,0,1,47.26.345q1.188-.112,2.379-.2C52.99-.11,56.5-.2,59.566,1.361s5.5,5.25,4.743,8.814a7.858,7.858,0,0,1-4.68,5.347A20.59,20.59,0,0,1,52.687,16.8l-22.9,1.541q-5.667.379-11.335.776c-3.609.251-7.273.753-10.89.756a7.374,7.374,0,0,1-4.522-1.268C1.256,17.226.186,14.281.017,11.978a4,4,0,0,1,1.095-3.39,3.858,3.858,0,0,1,1.759-.63c2.9-.525,5.787-1.073,8.69-1.561" transform="translate(128.036 155.899)" fill="#ea4327"/>
        <path id="Fill_33" data-name="Fill 33" d="M0,0,41.308,3.2,3.1,8.61Z" transform="translate(70.59 164.513)" fill="#8bd4ea"/>
        <path id="Fill_35" data-name="Fill 35" d="M38.305,0,.092,5.41,0,9.72,38.305,3.867Z" transform="translate(73.593 167.714)" fill="#3f91ac"/>
        <path id="Fill_37" data-name="Fill 37" d="M77.03,54.338,65.861,5.549a2.917,2.917,0,0,0-2.572-2.322L4.739,0A2.325,2.325,0,0,0,2.712.971L2.7.962,0,4.119l2.4-.407,9.05,46.446a2.928,2.928,0,0,0,2.58,2.329l60.59,4.889a2.337,2.337,0,0,0,2.406-3.037" transform="translate(1.088 116.998)" fill="#3f91ac"/>
        <path id="Fill_39" data-name="Fill 39" d="M11.753,52.427l60.718,4.994a2.335,2.335,0,0,0,2.417-3.028L63.784,5.656A2.92,2.92,0,0,0,61.21,3.333L2.532,0A2.433,2.433,0,0,0,.048,2.979L9.171,50.1a2.933,2.933,0,0,0,2.583,2.331" transform="translate(0.624 120.12)" fill="#0b2d4e"/>
        <path id="Fill_41" data-name="Fill 41" d="M.112,5.471A7.932,7.932,0,0,0,6.826,11.7c3.093.222,5.047-2.226,4.366-5.466S7.511.213,4.485.012-.5,2.254.112,5.471" transform="translate(30.823 141.257)" fill="#3f91ac"/>
        <path id="Fill_43" data-name="Fill 43" d="M31.255,9.834c-1.8.372-3.214,1.951-5.01,2.481a6.186,6.186,0,0,1-3.884-.285c-1.132-.424-2.283-.651-3.445-1.021-.905-.29-2.129-.9-3.1-.7-2.55.53-5.094,2.34-7.4,3.515a2.685,2.685,0,0,1-1.662.428c-.574-.108-1.051-.8-.725-1.284-.665.62-1.545,1.86-2.619,1.378a.894.894,0,0,1-.46-1.19,3.633,3.633,0,0,1-1.264,1.02A1.244,1.244,0,0,1,.2,13.837,1.456,1.456,0,0,1,0,13.1,5.545,5.545,0,0,1,.6,10.542c1.821-3.963,5.938-6.9,9.442-9.264A7.528,7.528,0,0,1,12,.22,6.9,6.9,0,0,1,13.993,0,39.714,39.714,0,0,1,26.8,2.064a5.552,5.552,0,0,0,2.76-.122,4.319,4.319,0,0,1,1.987-.057,3.425,3.425,0,0,1,1.714,1.383,6.408,6.408,0,0,1,1.323,3.988c-.072,1.063-.154,2.209-1.407,2.432-.508.091-1.031.034-1.544.088-.129.013-.255.034-.38.059" transform="translate(99.704 163.82)" fill="#f8a17a"/>
        <path id="Fill_45" data-name="Fill 45" d="M15.726,27.88c2.654-.849,4.841-2.494,5.659-5.11.744-2.374-.429-5.044-.637-7.44a45.257,45.257,0,0,1-.074-6.9,29.845,29.845,0,0,0,.015-6.457c-.186-1.21-.853-1-2.081-1.485A10.745,10.745,0,0,0,14.669,0C11.937.008,4.814-.19,3.125,2.2a6.708,6.708,0,0,0-.873,3.786c-.044,1.578-.324,3.621-.583,5.823-.115.98-.044,1.957-.195,2.93a18.309,18.309,0,0,1-.947,3.179c-1.374,3.949-.087,7.7,4.194,9.511a16.955,16.955,0,0,0,11.005.45" transform="translate(116.003 81.691)" fill="#f8a17a"/>
        <path id="Fill_47" data-name="Fill 47" d="M19.9,1.968c-.186-1.21-.852-1-2.08-1.485A10.733,10.733,0,0,0,13.876,0C11.145.008,4.022-.19,2.333,2.2A6.707,6.707,0,0,0,1.46,5.988c-.044,1.577-.324,3.621-.584,5.823-.115.98-.043,1.957-.194,2.93A13.642,13.642,0,0,1,0,17.171a14.521,14.521,0,0,0,8.4.522A19.169,19.169,0,0,0,19.838,9.363c.013-.313.023-.625.043-.938A29.8,29.8,0,0,0,19.9,1.968" transform="translate(116.781 81.691)" fill="#e5785c"/>
        <path id="Fill_49" data-name="Fill 49" d="M36.341,21.6a33.216,33.216,0,0,0-1.464-9.957C30.827-.725,15.359-3.78,6.044,5.1-4.343,15-.368,38.666,10.573,46.981a12.3,12.3,0,0,0,10.454,2.053C31.776,46.159,36.409,32.966,36.341,21.6" transform="translate(104.304 46.504)" fill="#f8a17a"/>
        <path id="Fill_51" data-name="Fill 51" d="M31.812,11.642C27.762-.725,12.294-3.78,2.979,5.1A16.863,16.863,0,0,0,0,8.957a12.427,12.427,0,0,0,1.634,1.17A47.609,47.609,0,0,0,14.26,15.4c1.907.489,3.914.891,5.477,2.086a8.06,8.06,0,0,1,2.118,2.556,23.71,23.71,0,0,1,1.566,3.786A44.843,44.843,0,0,1,25.2,32.52a1.361,1.361,0,0,0,.318.844,1.14,1.14,0,0,0,.822.233c1.715-.044,2.543-1.684,3.879-2.553.8-.523,1.606-1.056,2.369-1.636a42.225,42.225,0,0,0,.686-7.809,33.22,33.22,0,0,0-1.464-9.957" transform="translate(107.369 46.504)" fill="#e5785c"/>
        <path id="Fill_53" data-name="Fill 53" d="M21.927,23.614a23.514,23.514,0,0,1,1.061,3.956,44.832,44.832,0,0,1,.637,8.849,1.356,1.356,0,0,0,.2.878,1.146,1.146,0,0,0,.785.337c1.707.178,2.741-1.341,4.178-2.03a23.035,23.035,0,0,0,4.3-2.455c3.708-2.9,2.86-7.681,2.743-11.934a25.959,25.959,0,0,0-.821-6.94,17.041,17.041,0,0,0-3.946-6.482A25.346,25.346,0,0,0,11.149.049,16.576,16.576,0,0,0,.839,4.415c-2.23,2.248.487,5.3,2.324,6.756A47.58,47.58,0,0,0,15,18.03c1.827.731,3.765,1.389,5.16,2.775a8.06,8.06,0,0,1,1.769,2.809" transform="translate(109.048 42.452)" fill="#0b2d4e"/>
        <path id="Fill_55" data-name="Fill 55" d="M3.512.593C8.271-2,9.735,4.569,8.917,7.839A10.413,10.413,0,0,1,7.2,11.618c-1.133,1.5-4.371,3.98-6.236,2.342a4.152,4.152,0,0,1-.96-3.13C-.062,7.817.286,2.352,3.512.593" transform="translate(135.101 67.815)" fill="#f8a17a"/>
        <path id="Fill_57" data-name="Fill 57" d="M4.2,33.246A5.471,5.471,0,0,0,4.325,29.1a15.994,15.994,0,0,0-1.914-3.769A17.113,17.113,0,0,1,.317,21.084,9.1,9.1,0,0,1,.419,16c1-3.205,3.04-5.567,4.447-7.983a11.46,11.46,0,0,0,1.51-3.838A6.587,6.587,0,0,0,5.874,0a6.027,6.027,0,0,1,1.8,4.251,10.806,10.806,0,0,1-.953,4.675C5.5,11.835,3.671,14.2,2.958,16.753a6.846,6.846,0,0,0-.216,3.716,20.261,20.261,0,0,0,1.492,3.9A13.515,13.515,0,0,1,5.6,28.864a5.251,5.251,0,0,1-1.4,4.383" transform="translate(200.464 115.398)" fill="#fff"/>
        <path id="Fill_59" data-name="Fill 59" d="M13.874,25.778h-9.7A4.164,4.164,0,0,1,0,21.619V0H18.044V21.619a4.164,4.164,0,0,1-4.17,4.159" transform="translate(196.263 150.405)" fill="#0098d7"/>
        <path id="Fill_61" data-name="Fill 61" d="M7.834,15.857A7.929,7.929,0,0,1,7.834,0a7.929,7.929,0,0,1,0,15.857Zm0-13.03a5.1,5.1,0,1,0,5.042,5.1A5.078,5.078,0,0,0,7.834,2.827Z" transform="translate(207.734 156.236)" fill="#0098d7"/>
        <path id="Fill_63" data-name="Fill 63" d="M.975,14.491h0A.978.978,0,0,1,0,13.518V.973a.975.975,0,0,1,1.951,0V13.518a.978.978,0,0,1-.975.973" transform="translate(197.986 151.909)" fill="#fff"/>
        <path id="Fill_65" data-name="Fill 65" d="M4.57,0V21.22A4.564,4.564,0,0,1,0,25.778H4.168A4.564,4.564,0,0,0,8.737,21.22V0Z" transform="translate(205.57 150.406)" fill="#0d84b9"/>
        <path id="Stroke_67" data-name="Stroke 67" d="M0,92.214a94.614,94.614,0,0,0,13.282-9.108A38.255,38.255,0,0,0,24.13,67.34c4.533-12.567,1.749-26.3,6.829-38.559A47.934,47.934,0,0,1,55.1,3.595c18.988-8.573,41.429-.946,54.965,13.72,7.261,7.867,17.7,12.432,28.317,13.244,20.632,1.577,42.123-8.888,61.236,2.925,9.742,6.021,16.627,16.693,18.773,27.956,1.208,6.343,1.07,13.4-1.555,19.391-2.582,5.894-7.036,10.7-10.863,15.794-5.069,6.746-8.165,14.208-7.171,22.731" transform="translate(22.335 0.39)" fill="none" stroke="#e1f4fd" stroke-miterlimit="10" stroke-width="2"/>
        <path id="Stroke_69" data-name="Stroke 69" d="M4.494,23.006C2.45,17.3-1.647,12.7.71,6.295A9.623,9.623,0,0,1,9.66,0,10.658,10.658,0,0,1,15.081,1.38c1.96,1.119,3.231,2.946,5.509,3.559,5.342,1.435,10.873-2.627,15.979-3.573C41.624.428,47,2.083,49.475,6.9c.976,1.9,1.391,4.092,2.673,5.8,2.143,2.852,6.31,3.827,8.006,6.963,2.768,5.121-2.92,12.518-5.814,16.452" transform="translate(95.989 32.219)" fill="none" stroke="#0b2d4e" stroke-miterlimit="10" stroke-width="1"/>
      </g>
    </g>
  </g>
</svg>
