<svg xmlns="http://www.w3.org/2000/svg" width="82.239" height="82.263" viewBox="0 0 82.239 82.263">
  <g id="Group_1" data-name="Group 1" transform="translate(-1396.63 -1180.731)">
    <g id="Get_Well_Soon_Icon" data-name="Get Well Soon Icon" transform="translate(1397.692 1181.946)">
      <g id="Group">
        <path id="Path" d="M58.012,77.452,2.046,21.486a7.061,7.061,0,0,1-.987-8.695A35.725,35.725,0,0,1,12.791,1.059a7.061,7.061,0,0,1,8.695.987L77.452,58.012a7.061,7.061,0,0,1,.987,8.695A35.725,35.725,0,0,1,66.707,78.439,7.01,7.01,0,0,1,58.012,77.452Z" transform="translate(0.308 0.156)" fill="#6dc7b6" stroke="#fff" stroke-miterlimit="10" stroke-width="2.278"/>
        <path id="Path-2" data-name="Path" d="M58.012,77.452,2.046,21.486a7.061,7.061,0,0,1-.987-8.695A35.725,35.725,0,0,1,12.791,1.059a7.061,7.061,0,0,1,8.695.987L77.452,58.012a7.061,7.061,0,0,1,.987,8.695A35.725,35.725,0,0,1,66.707,78.439,7.01,7.01,0,0,1,58.012,77.452Z" transform="translate(0.308 0.156)" fill="#6dc7b6" stroke="#23364e" stroke-miterlimit="10" stroke-width="2.278"/>
      </g>
      <g id="Group-2" data-name="Group" transform="translate(7.594 7.214)">
        <g id="Group-3" data-name="Group">
          <g id="Group-4" data-name="Group">
            <circle id="Oval" cx="0.873" cy="0.873" r="0.873" transform="translate(0.152 10.745)" fill="#fff"/>
            <circle id="Oval-2" data-name="Oval" cx="0.873" cy="0.873" r="0.873" transform="translate(3.607 7.29)" fill="#fff"/>
            <circle id="Oval-3" data-name="Oval" cx="0.873" cy="0.873" r="0.873" transform="translate(10.517 0.342)" fill="#fff"/>
            <circle id="Oval-4" data-name="Oval" cx="0.873" cy="0.873" r="0.873" transform="translate(7.062 3.797)" fill="#fff"/>
          </g>
          <g id="Group-5" data-name="Group" transform="translate(3.037 3.037)">
            <circle id="Oval-5" data-name="Oval" cx="0.873" cy="0.873" r="0.873" transform="translate(0.076 10.669)" fill="#fff"/>
            <circle id="Oval-6" data-name="Oval" cx="0.873" cy="0.873" r="0.873" transform="translate(3.531 7.214)" fill="#fff"/>
            <circle id="Oval-7" data-name="Oval" cx="0.873" cy="0.873" r="0.873" transform="translate(10.441 0.304)" fill="#fff"/>
            <circle id="Oval-8" data-name="Oval" cx="0.873" cy="0.873" r="0.873" transform="translate(6.986 3.759)" fill="#fff"/>
          </g>
          <g id="Group-6" data-name="Group" transform="translate(6.075 6.075)">
            <circle id="Oval-9" data-name="Oval" cx="0.873" cy="0.873" r="0.873" transform="translate(0 10.631)" fill="#fff"/>
            <circle id="Oval-10" data-name="Oval" cx="0.873" cy="0.873" r="0.873" transform="translate(3.493 7.138)" fill="#fff"/>
            <circle id="Oval-11" data-name="Oval" cx="0.873" cy="0.873" r="0.873" transform="translate(10.403 0.228)" fill="#fff"/>
            <circle id="Oval-12" data-name="Oval" cx="0.873" cy="0.873" r="0.873" transform="translate(6.948 3.683)" fill="#fff"/>
          </g>
          <g id="Group-7" data-name="Group" transform="translate(8.733 9.113)">
            <circle id="Oval-13" data-name="Oval" cx="0.873" cy="0.873" r="0.873" transform="translate(0.342 10.555)" fill="#fff"/>
            <circle id="Oval-14" data-name="Oval" cx="0.873" cy="0.873" r="0.873" transform="translate(3.797 7.1)" fill="#fff"/>
            <circle id="Oval-15" data-name="Oval" cx="0.873" cy="0.873" r="0.873" transform="translate(10.707 0.19)" fill="#fff"/>
            <circle id="Oval-16" data-name="Oval" cx="0.873" cy="0.873" r="0.873" transform="translate(7.252 3.645)" fill="#fff"/>
          </g>
        </g>
        <g id="Group-8" data-name="Group" transform="translate(43.664 43.664)">
          <g id="Group-9" data-name="Group">
            <circle id="Oval-17" data-name="Oval" cx="0.873" cy="0.873" r="0.873" transform="translate(0.076 10.669)" fill="#fff"/>
            <circle id="Oval-18" data-name="Oval" cx="0.873" cy="0.873" r="0.873" transform="translate(3.531 7.214)" fill="#fff"/>
            <circle id="Oval-19" data-name="Oval" cx="0.873" cy="0.873" r="0.873" transform="translate(10.441 0.266)" fill="#fff"/>
            <circle id="Oval-20" data-name="Oval" cx="0.873" cy="0.873" r="0.873" transform="translate(6.986 3.759)" fill="#fff"/>
          </g>
          <g id="Group-10" data-name="Group" transform="translate(3.037 3.037)">
            <circle id="Oval-21" data-name="Oval" cx="0.873" cy="0.873" r="0.873" transform="translate(0 10.593)" fill="#fff"/>
            <circle id="Oval-22" data-name="Oval" cx="0.873" cy="0.873" r="0.873" transform="translate(3.455 7.138)" fill="#fff"/>
            <circle id="Oval-23" data-name="Oval" cx="0.873" cy="0.873" r="0.873" transform="translate(10.403 0.228)" fill="#fff"/>
            <circle id="Oval-24" data-name="Oval" cx="0.873" cy="0.873" r="0.873" transform="translate(6.91 3.683)" fill="#fff"/>
          </g>
          <g id="Group-11" data-name="Group" transform="translate(5.695 6.075)">
            <circle id="Oval-25" data-name="Oval" cx="0.873" cy="0.873" r="0.873" transform="translate(0.342 10.555)" fill="#fff"/>
            <circle id="Oval-26" data-name="Oval" cx="0.873" cy="0.873" r="0.873" transform="translate(3.797 7.1)" fill="#fff"/>
            <circle id="Oval-27" data-name="Oval" cx="0.873" cy="0.873" r="0.873" transform="translate(10.707 0.152)" fill="#fff"/>
            <circle id="Oval-28" data-name="Oval" cx="0.873" cy="0.873" r="0.873" transform="translate(7.252 3.607)" fill="#fff"/>
          </g>
          <g id="Group-12" data-name="Group" transform="translate(8.733 9.113)">
            <circle id="Oval-29" data-name="Oval" cx="0.873" cy="0.873" r="0.873" transform="translate(0.266 10.479)" fill="#fff"/>
            <circle id="Oval-30" data-name="Oval" cx="0.873" cy="0.873" r="0.873" transform="translate(3.721 7.024)" fill="#fff"/>
            <circle id="Oval-31" data-name="Oval" cx="0.873" cy="0.873" r="0.873" transform="translate(10.631 0.114)" fill="#fff"/>
            <circle id="Oval-32" data-name="Oval" cx="0.873" cy="0.873" r="0.873" transform="translate(7.176 3.569)" fill="#fff"/>
          </g>
        </g>
      </g>
      <rect id="Rectangle" width="29.805" height="29.805" transform="translate(22.2 43.101) rotate(-45)" fill="#585963" opacity="0.5"/>
      <g id="Group-13" data-name="Group">
        <path id="Path-3" data-name="Path" d="M21.486,77.452,77.452,21.486a7.061,7.061,0,0,0,.987-8.695A35.725,35.725,0,0,0,66.707,1.059a7.061,7.061,0,0,0-8.695.987L2.046,58.012a7.061,7.061,0,0,0-.987,8.695A35.725,35.725,0,0,0,12.791,78.439,7.01,7.01,0,0,0,21.486,77.452Z" transform="translate(0.308 0.156)" fill="#509a8f" stroke="#fff" stroke-miterlimit="10" stroke-width="2.278"/>
        <path id="Path-4" data-name="Path" d="M21.486,77.452,77.452,21.486a7.061,7.061,0,0,0,.987-8.695A35.725,35.725,0,0,0,66.707,1.059a7.061,7.061,0,0,0-8.695.987L2.046,58.012a7.061,7.061,0,0,0-.987,8.695A35.725,35.725,0,0,0,12.791,78.439,7.01,7.01,0,0,0,21.486,77.452Z" transform="translate(0.308 0.156)" fill="#d3eee9" stroke="#23364e" stroke-miterlimit="10" stroke-width="2.278"/>
      </g>
      <path id="Path-5" data-name="Path" d="M.769,19.108,19.108.769a2.635,2.635,0,0,1,3.721,0L32.663,10.6a2.635,2.635,0,0,1,0,3.721L14.324,32.663a2.635,2.635,0,0,1-3.721,0L.769,22.829A2.635,2.635,0,0,1,.769,19.108Z" transform="translate(24.86 24.708)" fill="#585963" opacity="0.5"/>
      <g id="Group-14" data-name="Group" transform="translate(23.92 23.92)">
        <path id="Path-6" data-name="Path" d="M12.852,31.153,31.191,12.814a1.742,1.742,0,0,0,0-2.468L21.357.513a1.742,1.742,0,0,0-2.468,0L.513,18.851a1.742,1.742,0,0,0,0,2.468l9.834,9.834A1.788,1.788,0,0,0,12.852,31.153Z" transform="translate(0.285 0.133)" fill="#fff"/>
        <path id="Path-7" data-name="Path" d="M12.852,31.153,31.191,12.814a1.742,1.742,0,0,0,0-2.468L21.357.513a1.742,1.742,0,0,0-2.468,0L.513,18.851a1.742,1.742,0,0,0,0,2.468l9.834,9.834A1.788,1.788,0,0,0,12.852,31.153Z" transform="translate(0.285 0.133)" fill="none" stroke="#23364e" stroke-miterlimit="10" stroke-width="2.278"/>
      </g>
      <g id="Group-15" data-name="Group" transform="translate(7.594 7.214)">
        <g id="Group-16" data-name="Group" transform="translate(43.664)">
          <g id="Group-17" data-name="Group" transform="translate(8.733)">
            <circle id="Oval-33" data-name="Oval" cx="0.873" cy="0.873" r="0.873" transform="translate(10.631 10.745)" fill="#fff"/>
            <circle id="Oval-34" data-name="Oval" cx="0.873" cy="0.873" r="0.873" transform="translate(7.176 7.29)" fill="#fff"/>
            <circle id="Oval-35" data-name="Oval" cx="0.873" cy="0.873" r="0.873" transform="translate(0.266 0.342)" fill="#fff"/>
            <circle id="Oval-36" data-name="Oval" cx="0.873" cy="0.873" r="0.873" transform="translate(3.721 3.797)" fill="#fff"/>
          </g>
          <g id="Group-18" data-name="Group" transform="translate(5.695 3.037)">
            <circle id="Oval-37" data-name="Oval" cx="0.873" cy="0.873" r="0.873" transform="translate(10.707 10.669)" fill="#fff"/>
            <circle id="Oval-38" data-name="Oval" cx="0.873" cy="0.873" r="0.873" transform="translate(7.252 7.214)" fill="#fff"/>
            <circle id="Oval-39" data-name="Oval" cx="0.873" cy="0.873" r="0.873" transform="translate(0.342 0.304)" fill="#fff"/>
            <circle id="Oval-40" data-name="Oval" cx="0.873" cy="0.873" r="0.873" transform="translate(3.797 3.759)" fill="#fff"/>
          </g>
          <g id="Group-19" data-name="Group" transform="translate(3.037 6.075)">
            <circle id="Oval-41" data-name="Oval" cx="0.873" cy="0.873" r="0.873" transform="translate(10.403 10.631)" fill="#fff"/>
            <circle id="Oval-42" data-name="Oval" cx="0.873" cy="0.873" r="0.873" transform="translate(6.91 7.138)" fill="#fff"/>
            <circle id="Oval-43" data-name="Oval" cx="0.873" cy="0.873" r="0.873" transform="translate(0 0.228)" fill="#fff"/>
            <circle id="Oval-44" data-name="Oval" cx="0.873" cy="0.873" r="0.873" transform="translate(3.455 3.683)" fill="#fff"/>
          </g>
          <g id="Group-20" data-name="Group" transform="translate(0 9.113)">
            <circle id="Oval-45" data-name="Oval" cx="0.873" cy="0.873" r="0.873" transform="translate(10.441 10.555)" fill="#fff"/>
            <circle id="Oval-46" data-name="Oval" cx="0.873" cy="0.873" r="0.873" transform="translate(6.986 7.1)" fill="#fff"/>
            <circle id="Oval-47" data-name="Oval" cx="0.873" cy="0.873" r="0.873" transform="translate(0.076 0.19)" fill="#fff"/>
            <circle id="Oval-48" data-name="Oval" cx="0.873" cy="0.873" r="0.873" transform="translate(3.531 3.645)" fill="#fff"/>
          </g>
        </g>
        <g id="Group-21" data-name="Group" transform="translate(0 43.664)">
          <g id="Group-22" data-name="Group" transform="translate(8.733)">
            <circle id="Oval-49" data-name="Oval" cx="0.873" cy="0.873" r="0.873" transform="translate(10.707 10.669)" fill="#fff"/>
            <circle id="Oval-50" data-name="Oval" cx="0.873" cy="0.873" r="0.873" transform="translate(7.252 7.214)" fill="#fff"/>
            <circle id="Oval-51" data-name="Oval" cx="0.873" cy="0.873" r="0.873" transform="translate(0.342 0.266)" fill="#fff"/>
            <circle id="Oval-52" data-name="Oval" cx="0.873" cy="0.873" r="0.873" transform="translate(3.797 3.759)" fill="#fff"/>
          </g>
          <g id="Group-23" data-name="Group" transform="translate(6.075 3.037)">
            <circle id="Oval-53" data-name="Oval" cx="0.873" cy="0.873" r="0.873" transform="translate(10.403 10.593)" fill="#fff"/>
            <circle id="Oval-54" data-name="Oval" cx="0.873" cy="0.873" r="0.873" transform="translate(6.948 7.138)" fill="#fff"/>
            <circle id="Oval-55" data-name="Oval" cx="0.873" cy="0.873" r="0.873" transform="translate(0 0.228)" fill="#fff"/>
            <circle id="Oval-56" data-name="Oval" cx="0.873" cy="0.873" r="0.873" transform="translate(3.493 3.683)" fill="#fff"/>
          </g>
          <g id="Group-24" data-name="Group" transform="translate(3.037 6.075)">
            <circle id="Oval-57" data-name="Oval" cx="0.873" cy="0.873" r="0.873" transform="translate(10.441 10.555)" fill="#fff"/>
            <circle id="Oval-58" data-name="Oval" cx="0.873" cy="0.873" r="0.873" transform="translate(6.986 7.1)" fill="#fff"/>
            <circle id="Oval-59" data-name="Oval" cx="0.873" cy="0.873" r="0.873" transform="translate(0.076 0.152)" fill="#fff"/>
            <circle id="Oval-60" data-name="Oval" cx="0.873" cy="0.873" r="0.873" transform="translate(3.531 3.607)" fill="#fff"/>
          </g>
          <g id="Group-25" data-name="Group" transform="translate(0 9.113)">
            <circle id="Oval-61" data-name="Oval" cx="0.873" cy="0.873" r="0.873" transform="translate(10.517 10.479)" fill="#fff"/>
            <circle id="Oval-62" data-name="Oval" cx="0.873" cy="0.873" r="0.873" transform="translate(7.062 7.024)" fill="#fff"/>
            <circle id="Oval-63" data-name="Oval" cx="0.873" cy="0.873" r="0.873" transform="translate(0.152 0.114)" fill="#fff"/>
            <circle id="Oval-64" data-name="Oval" cx="0.873" cy="0.873" r="0.873" transform="translate(3.607 3.569)" fill="#fff"/>
          </g>
        </g>
      </g>
    </g>
  </g>
</svg>
