<svg xmlns="http://www.w3.org/2000/svg" xmlns:xlink="http://www.w3.org/1999/xlink" width="110" height="83" viewBox="0 0 110 83">
  <defs>
    <linearGradient id="linear-gradient" x1="0.851" y1="-0.046" x2="0.178" y2="1" gradientUnits="objectBoundingBox">
      <stop offset="0" stop-color="#ff8180"/>
      <stop offset="1" stop-color="#fe4a49"/>
    </linearGradient>
  </defs>
  <path id="Fill_8" data-name="Fill 8" d="M-110,0s7.328.989,21.9,4.487c.044.009.075.019.115.028,15.46,3.519,36.958,9.014,56.5,16.14C4.16,33.692,6.03,50.868-8.552,55.224c-14.55,4.325-22.932.653-22.932.653L-82.176,21.4l-19.5-14.624,7.665,7.374c.187.187.374.342.561.5,24.832,22.559,40.971,31.676,46.362,41.2a.031.031,0,0,1,.031.031c.187.28.312.56.467.84.031.093.093.156.125.249a15.962,15.962,0,0,1,1.246,3.921s.031.311.031.871a.263.263,0,0,1,0,.218,17.944,17.944,0,0,1-2.119,7.966c-.28.467-.561.933-.872,1.431-2.773,4.232-8.194,8.65-18.538,10.766C-89.311,86.714-99,72.8-104.2,46.232c-1.707-8.731-2.851-16.7-3.62-23.483v0C-110.123,2.542-110,0-110,0" transform="translate(110 0)" fill="url(#linear-gradient)"/>
</svg>
