<svg xmlns="http://www.w3.org/2000/svg" width="1871" height="251" viewBox="0 0 1871 251">
  <g id="clouds" transform="translate(1871)">
    <path id="Fill_117" data-name="Fill 117" d="M-164.559,46.679a21.116,21.116,0,0,0,16.322,6.8c-3.535,36.648,53.124,39.561,56.991,6.578a87.692,87.692,0,0,0,20.42,2.4A87.212,87.212,0,0,0-44.118,58.3a32.535,32.535,0,0,0,5.809.526c14.675,0,26.944-9.879,29.964-23.086A81.115,81.115,0,0,0,0,25.226c.045-.062-2.865-.112-7.966-.152C-10.15,10.888-22.9,0-38.309,0-53.673,0-66.4,10.823-68.636,24.951c-47.459,0-94.909.156-142.364.156,4.87,13.7,18.407,23.554,34.346,23.554a37.583,37.583,0,0,0,12.095-1.981" transform="translate(-14 104)" fill="#27aae2"/>
    <path id="Fill_118" data-name="Fill 118" d="M0,57H-225a19.6,19.6,0,0,1,18.06-8.671c14.223-22.669,45.488-29.953,69.181-16.337,17.476-44.009,85-42.192,99.623,2.85C-21.317,31.824-4.7,41.364,0,57" transform="translate(0 72)" fill="#9ae0e2"/>
    <path id="Fill_119" data-name="Fill 119" d="M-146.912,18.3a29.461,29.461,0,0,1-25.507-6.059C-188.823,28.937-217.731,22.483-225,0H0C-3.082,16.379-24.733,20.52-33.941,6.864a28.849,28.849,0,0,1-21.3,21.855C-67.533,81.865-147.508,72.192-146.912,18.3" transform="translate(0 130)" fill="#6cc9bf"/>
    <path id="Fill_197" data-name="Fill 197" d="M-450,0H0A38.451,38.451,0,0,1-36.126,18.407C-64.558,66.524-127.1,81.991-174.479,53.089c-34.95,93.417-170.007,89.568-199.249-6.054A66.355,66.355,0,0,1-450,0" transform="translate(-173 130)" fill="#9ae0e2"/>
    <path id="Fill_198" data-name="Fill 198" d="M-156.177,92.12a58.586,58.586,0,0,1,51.018,12.209C-72.35,70.672-14.538,83.676,0,129H-450c6.164-33.021,49.465-41.368,67.882-13.839a57.938,57.938,0,0,1,42.6-44.048c24.589-107.12,184.533-87.626,183.345,21.008" transform="translate(-173)" fill="#fff"/>
    <g id="Group_4" data-name="Group 4">
      <path id="Fill_199" data-name="Fill 199" d="M0,26H-96a8.184,8.184,0,0,1,7.707-3.956,21.326,21.326,0,0,1,29.516-7.45c7.457-20.075,36.269-19.247,42.5,1.3A14.146,14.146,0,0,1,0,26" transform="translate(-1775 42)" fill="#fff"/>
    </g>
    <g id="Group_5" data-name="Group 5">
      <path id="Fill_200" data-name="Fill 200" d="M-62.683,7.435A13.044,13.044,0,0,1-73.565,4.973C-80.568,11.755-92.9,9.135-96,0H0C-1.318,6.655-10.555,8.337-14.482,2.789A12.012,12.012,0,0,1-23.57,11.67c-5.246,21.588-39.366,17.655-39.113-4.235" transform="translate(-1775 68)" fill="#afdefa"/>
    </g>
  </g>
</svg>
