<svg id="clouds" xmlns="http://www.w3.org/2000/svg" width="312" height="245" viewBox="0 0 312 245">
  <path id="Fill_118" data-name="Fill 118" d="M0-46H182a15.863,15.863,0,0,1-14.609,7c-11.5,18.295-36.795,24.173-55.96,13.184C97.3,9.7,42.675,8.232,30.848-28.118,17.243-25.683,3.8-33.381,0-46" transform="translate(130 98)" fill="#9ae0e2"/>
  <path id="Fill_119" data-name="Fill 119" d="M118.835-14.866a23.751,23.751,0,0,1,20.632,4.923C152.737-23.511,176.12-18.267,182,0H0C2.493-13.308,20.006-16.672,27.454-5.577A23.392,23.392,0,0,1,44.682-23.334c9.945-43.181,74.635-35.322,74.153,8.468" transform="translate(129 52)" fill="#6cc9bf"/>
  <path id="Fill_199" data-name="Fill 199" d="M0,21H78a6.661,6.661,0,0,0-6.262-3.2,17.385,17.385,0,0,0-23.981-6.018C41.7-4.428,18.289-3.758,13.222,12.838A11.5,11.5,0,0,0,0,21" transform="translate(0 203)" fill="#fff"/>
  <path id="Fill_200" data-name="Fill 200" d="M50.93,6.005a10.647,10.647,0,0,0,8.842-1.988C65.462,9.494,75.48,7.378,78,0H0C1.071,5.375,8.576,6.734,11.767,2.252a9.733,9.733,0,0,0,7.384,7.174c4.262,17.437,31.985,14.26,31.78-3.421" transform="translate(0 224)" fill="#afdefa"/>
</svg>
