<svg id="Good_Housekeeping_Logo" data-name="Good Housekeeping Logo" xmlns="http://www.w3.org/2000/svg" width="143" height="30" viewBox="0 0 143 30">
  <path id="Fill-1" d="M7.991,5.5H3.5V0H0V14H3.5V8.472H7.991V14H11V0H7.991V5.5" transform="translate(0 16)" fill="#1a1a1a"/>
  <path id="Fill-2" d="M0,14H9V11.038H3.245V8.457H9V5.495H3.245V2.962H9V0H0V14" transform="translate(87 16)" fill="#1a1a1a"/>
  <path id="Fill-3" d="M7.685,9.113a2.118,2.118,0,0,1-2.236,2.03A2.05,2.05,0,0,1,3.29,9.113V0H0V8.948C0,12.064,2.107,14,5.5,14S11,12.064,11,8.948V0H7.71V9.113" transform="translate(29 16)" fill="#1a1a1a"/>
  <path id="Fill-4" d="M0,7a7,7,0,1,1,6.989,7A7,7,0,0,1,0,7Z" transform="translate(13 16)" fill="#1a1a1a"/>
  <path id="Fill-5" d="M6.513,5.927V8.82h4.112a3.479,3.479,0,0,1-3.447,2.263A4.025,4.025,0,0,1,3.019,7,4.1,4.1,0,0,1,7.107,2.917,3.818,3.818,0,0,1,10.72,5.063l.119.233L13.5,3.71l-.119-.21A7.119,7.119,0,0,0,7.083,0,6.886,6.886,0,0,0,0,7a6.944,6.944,0,0,0,7.2,7A6.663,6.663,0,0,0,14,7.187V5.927H6.513" transform="translate(129 16)" fill="#1a1a1a"/>
  <path id="Fill-6" d="M8.841,8.448,3.38,0H0V14H3.135V5.241L8.792,14H12V0H8.865V8.448" transform="translate(115 16)" fill="#1a1a1a"/>
  <path id="Fill-7" d="M0,0H3V14H0Z" transform="translate(110 16)" fill="#1a1a1a"/>
  <path id="Fill-8" d="M0,14H9V11.038H3.245V8.457H9V5.495H3.245V2.962H9V0H0V14" transform="translate(76 16)" fill="#1a1a1a"/>
  <path id="Fill-9" d="M6.744,5.512l-.3-.093C4.977,4.977,4.081,4.651,4.081,3.93c0-.744.647-1.209,1.667-1.209a2.625,2.625,0,0,1,2.29,1.14l.149.209,2.663-1.884-.2-.209A6.514,6.514,0,0,0,5.749,0C2.937,0,.821,1.721.821,4.023.821,6.791,3.235,7.488,4.977,8l.224.07c1.344.372,2.489.7,2.489,1.558,0,.721-.572,1.488-1.842,1.488A3.313,3.313,0,0,1,3.036,9.488l-.149-.256L0,11.372l.174.186A7.493,7.493,0,0,0,5.873,14C8.362,14,11,12.488,11,9.651,10.975,6.791,8.312,6,6.744,5.512" transform="translate(41 16)" fill="#1a1a1a"/>
  <path id="Fill-10" d="M0,14V0H5.381C8.546,0,11.026,2.226,11,5.073c0,2.848-2.48,5.073-5.645,5.073H3.377V14Z" transform="translate(98 16)" fill="#1a1a1a"/>
  <path id="Fill-11" d="M0,14H8.975V11.038H3.261V8.457H9V5.495H3.261V2.962H9V0H.025V14" transform="translate(53 16)" fill="#1a1a1a"/>
  <path id="Fill-12" d="M10.762,0H7.009L3.041,4.978V0H0V14H3.041V9.142L4.134,7.754,7.531,14H11L6.3,5.528,10.762,0" transform="translate(63 16)" fill="#1a1a1a"/>
  <path id="Fill-13" d="M0,14V0H3.822C8.11,0,11,2.8,11,6.988A6.839,6.839,0,0,1,3.938,14Z" transform="translate(90 1)" fill="#1a1a1a"/>
  <path id="Fill-14" d="M0,7a7,7,0,1,1,6.989,7A7,7,0,0,1,0,7Z" transform="translate(58)" fill="#1a1a1a"/>
  <path id="Fill-15" d="M0,7a7,7,0,1,1,6.989,7A7,7,0,0,1,0,7Z" transform="translate(73)" fill="#1a1a1a"/>
  <path id="Fill-16" d="M7.191,14A6.664,6.664,0,0,0,14,7.2V5.917H6.524V8.805h4.119a3.506,3.506,0,0,1-3.452,2.26A4.025,4.025,0,0,1,3.024,6.988a4.1,4.1,0,0,1,4.1-4.077,3.826,3.826,0,0,1,3.619,2.143l.119.233L13.524,3.7l-.119-.21A7.136,7.136,0,0,0,7.1,0,6.887,6.887,0,0,0,0,6.988,6.916,6.916,0,0,0,7.191,14" transform="translate(42)" fill="#1a1a1a"/>
</svg>
