<svg xmlns="http://www.w3.org/2000/svg" width="24" height="24" viewBox="0 0 24 24">
  <path id="Instagram" d="M7.052,23.927a8.884,8.884,0,0,1-2.913-.557,5.889,5.889,0,0,1-2.125-1.384A5.9,5.9,0,0,1,.63,19.86a8.844,8.844,0,0,1-.558-2.912C.014,15.679,0,15.256,0,12S.014,8.321.072,7.052A8.859,8.859,0,0,1,.63,4.139,5.889,5.889,0,0,1,2.014,2.014,5.889,5.889,0,0,1,4.139.63,8.859,8.859,0,0,1,7.052.072C8.321.014,8.744,0,12,0s3.679.014,4.948.072A8.844,8.844,0,0,1,19.86.63a5.9,5.9,0,0,1,2.126,1.384A5.889,5.889,0,0,1,23.37,4.139a8.884,8.884,0,0,1,.557,2.913C23.987,8.334,24,8.76,24,12s-.014,3.667-.073,4.948a8.869,8.869,0,0,1-.557,2.912,6.136,6.136,0,0,1-3.51,3.51,8.869,8.869,0,0,1-2.912.557C15.666,23.987,15.241,24,12,24S8.334,23.987,7.052,23.927ZM7.071,2.071a6.769,6.769,0,0,0-2.265.42A3.767,3.767,0,0,0,3.4,3.4a3.767,3.767,0,0,0-.913,1.4,6.769,6.769,0,0,0-.42,2.265C2.012,8.365,2,8.752,2,12s.013,3.636.071,4.929a6.769,6.769,0,0,0,.42,2.265A3.782,3.782,0,0,0,3.4,20.6a3.778,3.778,0,0,0,1.4.913,6.757,6.757,0,0,0,2.265.419C8.346,21.987,8.73,22,12,22s3.655-.013,4.929-.071a6.757,6.757,0,0,0,2.265-.419,4.042,4.042,0,0,0,2.315-2.315,6.757,6.757,0,0,0,.419-2.265C21.987,15.655,22,15.27,22,12s-.013-3.654-.071-4.928a6.757,6.757,0,0,0-.419-2.265A3.778,3.778,0,0,0,20.6,3.4a3.771,3.771,0,0,0-1.4-.913,6.769,6.769,0,0,0-2.265-.42C15.636,2.012,15.249,2,12,2S8.365,2.012,7.071,2.071ZM6,12a6,6,0,1,1,6,6A6.006,6.006,0,0,1,6,12Zm2,0a4,4,0,1,0,4-4A4,4,0,0,0,8,12Zm9-5.5A1.5,1.5,0,1,1,18.5,8,1.5,1.5,0,0,1,17,6.5Z" fill="#fff"/>
</svg>
