<svg xmlns="http://www.w3.org/2000/svg" xmlns:xlink="http://www.w3.org/1999/xlink" width="144.769" height="36.252" viewBox="0 0 144.769 36.252">
  <defs>
    <clipPath id="clip-path">
      <path id="Clip_6" data-name="Clip 6" d="M0,0H15.416V10.288H0Z" transform="translate(0.028 0.238)" fill="none"/>
    </clipPath>
    <clipPath id="clip-path-2">
      <path id="Clip_13" data-name="Clip 13" d="M0,0H43.552V36.252H0Z" transform="translate(0 -0.002)" fill="none"/>
    </clipPath>
  </defs>
  <g id="Logo" transform="translate(0 0.002)">
    <path id="Fill_1" data-name="Fill 1" d="M12.655,14.1h-.007a.152.152,0,0,1-.14-.162c0-.067,0-.141,0-.232a10.628,10.628,0,0,0-.251-2.088.157.157,0,0,1,.113-.184.145.145,0,0,1,.03,0,.151.151,0,0,1,.146.121,11.03,11.03,0,0,1,.258,2.155c0,.092,0,.173-.006.247A.15.15,0,0,1,12.655,14.1Zm-.73-4.2a.147.147,0,0,1-.14-.107,22.42,22.42,0,0,0-.819-2.2.16.16,0,0,1,.073-.206.144.144,0,0,1,.06-.013.15.15,0,0,1,.136.091,22.549,22.549,0,0,1,.83,2.235.156.156,0,0,1-.094.194A.113.113,0,0,1,11.925,9.9ZM10.076,8.887c-.581,0-1.16-.028-1.723-.082a.154.154,0,0,1-.134-.168A.143.143,0,0,1,8.361,8.5H8.38c.558.053,1.13.08,1.7.08.183,0,.369,0,.552-.008a.161.161,0,0,1,.151.15.151.151,0,0,1-.143.158C10.428,8.884,10.243,8.887,10.076,8.887Zm2.371-.144A.151.151,0,0,1,12.3,8.6a.153.153,0,0,1,.131-.17c.722-.084,1.473-.2,2.233-.359a.141.141,0,0,1,.029,0,.148.148,0,0,1,.143.125.155.155,0,0,1-.116.182c-.779.158-1.538.28-2.256.363ZM6.569,8.53a.113.113,0,0,1-.03,0,12.969,12.969,0,0,1-2.2-.675.158.158,0,0,1-.083-.2.148.148,0,0,1,.138-.1.138.138,0,0,1,.053.011,12.561,12.561,0,0,0,2.154.66.155.155,0,0,1,.114.184A.149.149,0,0,1,6.569,8.53Zm9.9-.569a.148.148,0,0,1-.142-.116.154.154,0,0,1,.105-.188c.734-.2,1.462-.426,2.166-.677a.136.136,0,0,1,.048-.009.147.147,0,0,1,.14.1.158.158,0,0,1-.092.2c-.707.253-1.443.483-2.187.683A.114.114,0,0,1,16.465,7.961Zm-13.7-.948a.155.155,0,0,1-.078-.023,6.76,6.76,0,0,1-1.734-1.6.16.16,0,0,1,.027-.217.14.14,0,0,1,.089-.032.144.144,0,0,1,.117.06A6.472,6.472,0,0,0,2.849,6.728a.159.159,0,0,1,.046.212A.145.145,0,0,1,2.769,7.014Zm17.572-.409a.149.149,0,0,1-.137-.1.157.157,0,0,1,.079-.2,20.335,20.335,0,0,0,2.031-1.026.137.137,0,0,1,.071-.02.147.147,0,0,1,.129.079.157.157,0,0,1-.058.21A20.623,20.623,0,0,1,20.4,6.592.148.148,0,0,1,20.341,6.605ZM10.274,5.986a.148.148,0,0,1-.129-.079A16.856,16.856,0,0,0,8.9,3.945a.161.161,0,0,1,.027-.219.142.142,0,0,1,.089-.032.144.144,0,0,1,.117.06,17.333,17.333,0,0,1,1.268,2,.158.158,0,0,1-.055.21A.141.141,0,0,1,10.274,5.986ZM.266,3.765a.149.149,0,0,1-.143-.117A4.669,4.669,0,0,1,.005,2.92V2.912c0-.048,0-.093,0-.138a2.769,2.769,0,0,1,.508-1.51A.144.144,0,0,1,.628,1.2a.147.147,0,0,1,.086.028.162.162,0,0,1,.035.216A2.446,2.446,0,0,0,.3,2.774c0,.049,0,.087,0,.122a4.068,4.068,0,0,0,.109.675A.156.156,0,0,1,.3,3.758.145.145,0,0,1,.266,3.765ZM7.807,2.586a.147.147,0,0,1-.1-.043,8.738,8.738,0,0,0-1.782-1.4.158.158,0,0,1-.058-.21.148.148,0,0,1,.129-.08.139.139,0,0,1,.071.019A8.95,8.95,0,0,1,7.909,2.321a.158.158,0,0,1,.005.218A.148.148,0,0,1,7.807,2.586ZM4.31.477a.153.153,0,0,1-.034,0A5.651,5.651,0,0,0,2.93.308c-.17,0-.342.008-.513.024A1.73,1.73,0,0,0,2.1.391.152.152,0,0,1,2.062.4.148.148,0,0,1,1.92.284a.154.154,0,0,1,.1-.191,2.138,2.138,0,0,1,.371-.07C2.57.007,2.748,0,2.923,0A5.946,5.946,0,0,1,4.344.172a.153.153,0,0,1,.11.185A.149.149,0,0,1,4.31.477Z" transform="translate(109.73 5.035)" fill="#fff"/>
    <path id="Fill_3" data-name="Fill 3" d="M0,6.042,3.686,2.624,3.919,0,1.127,2.794Z" transform="translate(134.223 6.042)" fill="#a3a5a7"/>
    <g id="Group_7" data-name="Group 7" transform="translate(129.324)">
      <path id="Clip_6-2" data-name="Clip 6" d="M0,0H15.416V10.288H0Z" transform="translate(0.028 0.238)" fill="none"/>
      <g id="Group_7-2" data-name="Group 7" clip-path="url(#clip-path)">
        <path id="Fill_5" data-name="Fill 5" d="M6.677,8.032c.077,1.267,4.1,3.751,6.881,1.036C15.175,7.488,15.416,0,15.416,0S2.343,3.356.443,5.338C-.25,6.06-.873,8.347,4.7,7.693c0,0,1.9-.93,1.978.339" transform="translate(0.028 0.238)" fill="#fff"/>
      </g>
    </g>
    <path id="Fill_8" data-name="Fill 8" d="M8.818,0,0,5.922l.3,4.148,1.8-3.8Z" transform="translate(134.223 2.014)" fill="#d2d3d2"/>
    <path id="Fill_10" data-name="Fill 10" d="M84.746,31.216a4.847,4.847,0,0,1-3.961-1.842A7.319,7.319,0,0,1,79.4,25.05a21.571,21.571,0,0,1-2.949,4.04c-1.359,1.41-2.662,2.125-3.873,2.125a1.741,1.741,0,0,1-1.3-.551c-.845-.879-1.215-2.782-1.1-5.654-.738,1.454-3.446,6.195-7.23,6.195a2.265,2.265,0,0,1-1.774-.86C60.11,29.1,59.694,26.6,60.11,23.978a23,23,0,0,1-2.791,4.762c-1.312,1.643-2.625,2.476-3.9,2.476a2.727,2.727,0,0,1-2.24-.957c-1.014-1.251-1.135-3.749-.359-7.425.21-.991.526-2.006.8-2.9.4-1.3.722-2.323.523-2.637a.2.2,0,0,0-.151-.1l-.04,0c-.56,0-1.451,1.486-2.683,3.542-2.5,4.172-6.278,10.476-11.073,10.476-.077,0-.148,0-.216,0h-.027a5.05,5.05,0,0,1-2.731-.851c-.861-.55-1.638-1.412-1.31-2.005a.407.407,0,0,1,.374-.24,1.965,1.965,0,0,1,1.023.526,3.364,3.364,0,0,0,2.032.8c2.769,0,4.619-4.643,5.275-7.387.552-2.308.5-3.97-.165-4.807a1.544,1.544,0,0,0-1.279-.584c-1.172,0-2.945,1.264-4.516,3.22A14.238,14.238,0,0,0,33.5,27.131c-.006.087-.015.176-.024.264v.011c0,.008,0,.017,0,.024a7.364,7.364,0,0,1-.706,2.585,1.916,1.916,0,0,1-1.678,1.2c-1.013,0-1.226-1.164-1.226-2.141,0-.269.057-1.612.239-3.558-1.126,2.128-3.465,5.7-6.467,5.7-.1,0-.2,0-.3-.012a2.806,2.806,0,0,1-2.433-1.873,9.313,9.313,0,0,1-.552-4.018c-1.447,2.862-4.309,5.9-6.757,5.9a2.224,2.224,0,0,1-1.942-.984c-1.57-2.282-.323-7.92.832-10.938A9.264,9.264,0,0,1,7.1,16.245c.1,4.937-2.54,12.111-4.687,14.3a1.8,1.8,0,0,1-1.179.667,1.518,1.518,0,0,1-1.073-.384A.542.542,0,0,1,0,30.409c.022-.291.459-.637.845-.942a5.152,5.152,0,0,0,.446-.378,15.536,15.536,0,0,0,3.051-5.3A32.743,32.743,0,0,0,6.2,14.414a.836.836,0,0,1,.915-.764,1.238,1.238,0,0,1,.9.435,2.339,2.339,0,0,0,.6.431l.3.14.005,0A12.92,12.92,0,0,0,15.26,16.1a1.447,1.447,0,0,1,1.076.389,1.635,1.635,0,0,1,.4,1.2A20.116,20.116,0,0,1,15.2,23.122c-.867,2.328-1.686,4.528-1.163,5.28a.693.693,0,0,0,.61.275c2.342,0,4.55-3.165,5.99-5.819l0-.012c0-.007,0-.015,0-.022a27.662,27.662,0,0,1,2.209-6.69c.864-1.733,1.42-2.061,2.144-2.061a1.379,1.379,0,0,1,1.281,1.433A23.5,23.5,0,0,1,25.626,18c-.972,3.4-2.6,9.09-1.674,10.422a.623.623,0,0,0,.479.283c.05,0,.1.006.153.006,2.137,0,4.519-3.368,5.749-5.375a70.738,70.738,0,0,1,1.778-9.625,9.091,9.091,0,0,1-5.9-3.334A6.709,6.709,0,0,1,24.74,6.683a4.353,4.353,0,0,1,.7-2.375,2.915,2.915,0,0,1,2.519-1.275,2.584,2.584,0,0,1,2.415,2.7,2.722,2.722,0,0,1-1.9,2.47,7.748,7.748,0,0,0,4.49,2.638C35.375,3.649,38.811,0,43.176,0A4.567,4.567,0,0,1,45.6.776,4.372,4.372,0,0,1,47.352,4.63a8.288,8.288,0,0,1-2.873,5.979c-1.513,1.385-4.291,3.079-8.935,3.285a51.92,51.92,0,0,0-1.763,8.488,17.539,17.539,0,0,1,2.752-4.6A7.814,7.814,0,0,1,42.5,14.691a3.325,3.325,0,0,1,3,1.52c1.223,1.911.964,5.536-.644,9.019.837-1.187,1.64-2.5,2.416-3.765,2.059-3.362,4-6.538,6.094-6.538a2.311,2.311,0,0,1,1.94.847,2.876,2.876,0,0,1,.271,2.557c-.749,2.609-2.392,8.82-1.477,10.138a.532.532,0,0,0,.406.246c.045,0,.09.005.135.005,2.079,0,4.484-3.742,6.956-10.821.991-2.833,2.333-2.833,2.839-2.833a1.1,1.1,0,0,1,.8.377,1.3,1.3,0,0,1,.324,1.01,17.374,17.374,0,0,1-.462,1.866c-.8,2.848-2.472,8.773-1.539,10.108a.609.609,0,0,0,.468.276c.051,0,.1.006.155.006,2.328,0,5.065-4.028,6.134-5.76.135-1.311.347-2.737.631-4.238.194-1.028.416-2.047.659-3.03h-.091a8.2,8.2,0,0,1-2.264-.143,1.39,1.39,0,0,1-.5-1.108,1.2,1.2,0,0,1,.3-.9,1.3,1.3,0,0,1,.975-.346c.058,0,.118,0,.179.007.008,0,.859.08,2.048.147.928-3.024,1.909-4.9,2.762-5.289a2.232,2.232,0,0,1,.891-.205,1.608,1.608,0,0,1,.23.016,1.164,1.164,0,0,1,1,1.217,40.177,40.177,0,0,1-1.009,4.079l-.073.271c.442-.006.874-.021,1.282-.045,1.408-.083,2.245-.117,2.887-.117,1.175,0,1.675.12,1.727.413a1.624,1.624,0,0,1-.411,1.151,1.786,1.786,0,0,1-1.421.637c-.364,0-1.22.028-2.3.064-.712.023-1.517.05-2.344.074-1.427,5.378-2.955,11.7-2.086,12.826a.413.413,0,0,0,.339.174c1.884,0,4.192-2.954,5.8-5.431.629-4.023,3.563-8.091,8.7-8.108a4.4,4.4,0,0,1,2.064.539,2.64,2.64,0,0,1,1.378,2.447,6.668,6.668,0,0,1-1.209,3.859,5.9,5.9,0,0,1-5.041,2.2,2.761,2.761,0,0,1-2.053-.737c-.3,2.12-.023,3.853.759,4.754a2.115,2.115,0,0,0,1.67.732,12.909,12.909,0,0,0,9.224-4.4c2.152-2.322,3.6-5.285,3.6-7.373,0-.494.051-1.06.45-1.06.621,0,.872.958.872,1.357,0,2.831-1.907,6.259-5.1,9.171S87.864,31.216,84.746,31.216Zm3.136-14.953c-1.991,0-3.7,3.095-4.351,6.152a2.891,2.891,0,0,0,1.454.384c.085,0,.172,0,.259-.01,2.713,0,3.862-3.4,3.862-4.754a1.993,1.993,0,0,0-.414-1.464A1.087,1.087,0,0,0,87.881,16.263ZM43.2,1.788c-2.162,0-4.713,3.565-6.824,9.536.315.015.635.024.952.024,3.283,0,5.672-.892,7.1-2.653a6.467,6.467,0,0,0,1.379-3.983A2.646,2.646,0,0,0,43.2,1.788Zm-14.8,3.368c-.642,0-.738.594-.738.948a3.131,3.131,0,0,0,.352,1.343,1.977,1.977,0,0,0,.909-1.55C28.916,5.516,28.662,5.156,28.393,5.156Z" transform="translate(23.514 5.035)" fill="#fff"/>
    <g id="Group_14" data-name="Group 14">
      <path id="Clip_13-2" data-name="Clip 13" d="M0,0H43.552V36.252H0Z" transform="translate(0 -0.002)" fill="none"/>
      <g id="Group_14-2" data-name="Group 14" clip-path="url(#clip-path-2)">
        <path id="Fill_12" data-name="Fill 12" d="M37.275,15.116c3.755.01,6.284-2.638,6.277-5.148,0-.9-.295-1.684-.663-1.808-.427-.144-.648.262-.647.746,0,1.387-1.082,3.059-4.236,3.05C33.312,11.943,17.424.029,7.465,0A7.085,7.085,0,0,0,0,6.988a6.542,6.542,0,0,0,6.8,6.554c3.825.01,5.418-2.592,5.412-4.69a3.157,3.157,0,0,0-2.794-3.4A2.358,2.358,0,0,0,7.135,7.809c0,1.159.868,1.563.869,2.217A1.674,1.674,0,0,1,6.311,11.68a4.345,4.345,0,0,1-4.059-4.3l0-.017C2.249,4.613,3.665,1.7,7.517,1.713c3.4.009,9.087,3.529,14.874,6.958-5.067,8.6-3.77,25.786-10.074,25.786-2.027,0-2.794-1.946-3.6-1.119-.723.738,1.626,2.914,3.608,2.914a7.608,7.608,0,0,0,5.591-2.758c4.459-4.347,4.531-16.026,6.814-23.452,4.709,2.724,9.287,5.065,12.548,5.074" transform="translate(0 -0.003)" fill="#fff"/>
      </g>
    </g>
  </g>
</svg>
