<svg xmlns="http://www.w3.org/2000/svg" width="130" height="30" viewBox="0 0 130 30">
  <g id="New_Yorker_Logo" data-name="New Yorker Logo" transform="translate(0)">
    <path id="Shape" d="M71.4,30a10.4,10.4,0,0,1-7.653-3.022,9.657,9.657,0,0,1,.07-13.584,10.481,10.481,0,0,1,7.436-2.852,10.347,10.347,0,0,1,7.417,2.794,8.929,8.929,0,0,1,2.7,6.443,10.609,10.609,0,0,1-2.536,7.456C77.094,29.069,74.593,30,71.4,30ZM71.1,11.612c-3.683,0-7.411,2.855-7.411,8.311,0,4.254,2.466,8.833,7.88,8.833,4.419,0,7.058-3.259,7.058-8.717C78.629,16.64,76.237,11.612,71.1,11.612Zm56.4,17.867a2.411,2.411,0,0,1-2.1-1.2,7.353,7.353,0,0,1-.841-3.895c0-2.3-.278-3.793-.849-4.568a1.853,1.853,0,0,0-1.709-.7v-.377a3.279,3.279,0,0,0,2.411-3.416c0-3.068-2.112-3.156-2.353-3.156h-1.235V29.189h-2.647l.059-18.011h4.293a4.594,4.594,0,0,1,2.922.937,3.414,3.414,0,0,1,1.224,2.74c0,2.86-2.208,3.571-3.528,4,2.661.447,3.559,1.734,3.559,5.1,0,3.462.9,4.691,1.676,4.691a1.612,1.612,0,0,0,1.264-.666L130,28.2l-.008.011A2.879,2.879,0,0,1,127.5,29.479Zm-34.728,0a2.41,2.41,0,0,1-2.1-1.2,7.353,7.353,0,0,1-.842-3.895c0-2.3-.278-3.793-.849-4.568a1.853,1.853,0,0,0-1.709-.7v-.377a3.279,3.279,0,0,0,2.411-3.416c0-3.068-2.112-3.156-2.353-3.156H86.1V29.189H83.452l.059-18.011H87.8a4.594,4.594,0,0,1,2.922.937,3.414,3.414,0,0,1,1.224,2.74c0,2.861-2.208,3.572-3.528,4,2.66.447,3.558,1.733,3.558,5.1,0,3.462.9,4.691,1.676,4.691a1.618,1.618,0,0,0,1.265-.666l.353.231-.006.01A2.872,2.872,0,0,1,92.773,29.479Zm11.909-.058a2.41,2.41,0,0,1-2.1-1.2,7.355,7.355,0,0,1-.841-3.895V23.6a16.719,16.719,0,0,0-.472-4.865,2.506,2.506,0,0,0-1.794-1.477h-.558V29.131H96.272L96.3,11.12h2.617v5.3l4.793-5.3h1.7l-5.057,5.589c2.518.423,3.5,2.234,3.5,6.458v.724h.029a9.667,9.667,0,0,0,.548,3.645c.294.675.694,1.047,1.127,1.047a1.626,1.626,0,0,0,1.265-.666l.353.231-.008.012A2.9,2.9,0,0,1,104.682,29.421Zm-91.625-.029,0,0L1.471,14.711V29.16H0L.059,11.178H2.264l9.351,11.7v-11.7h1.441V29.392Zm19.084-.059v0L23.965,11.178h2.823l6.087,13.175L34.14,21.6,29.493,11.178H32.17l3.381,7.036,3.235-7.036h1.381l-3.852,8.948,1.97,4.227L44.2,11.178h1.617L37.7,29.3l-2.823-5.878-2.733,5.9Zm83.3-.174h-7.2V11.178h7.41l.941,2.084a4.81,4.81,0,0,0-3.353-1.1H110.8V18.5h2.941c1.087,0,1.41-.087,1.823-.492v2.143c0-.006-.312-.637-1.822-.637H110.8v8.427h1.794c3.168,0,4.458-.946,4.47-.956l-1.618,2.171Zm-58.222,0H54.429v-9.3l-5.088-8.687h1.647l4.822,8.252,4.852-8.252H62.31l-5.088,8.687v9.294Zm-30.964,0H15.5l.03-17.982H22.2l.941,2.084a4.842,4.842,0,0,0-3.2-1.1H18.32V18.5h2.705c1.379,0,1.592-.149,2.117-.666V20.5a2.541,2.541,0,0,0-2.117-.9H18.32v8.34h3.764a9.367,9.367,0,0,0,5.528-1.506l-1.352,2.721Zm49.018-21.6H71.131V0h3.559l.441,1.1A2.734,2.734,0,0,0,73.836.58H72.543V3.214h1.147c.642,0,.822-.286.824-.289V4.141a.937.937,0,0,0-.824-.347H72.543V6.979H74.16a2.228,2.228,0,0,0,1.734-.637l-.617,1.216ZM63.985,7.53H62.6V0h1.382V3.244h3.176V0h1.381V7.528H67.162V3.822H63.985V7.529Zm-5.94,0H56.6V.579h-.735a3.5,3.5,0,0,0-2.058.811L54.223.029h6.233l.412,1.361A3.5,3.5,0,0,0,58.81.579h-.765v6.95Z" fill="#121212"/>
  </g>
</svg>
