<svg xmlns="http://www.w3.org/2000/svg" width="79.883" height="90.339" viewBox="0 0 79.883 90.339">
  <g id="Group_3" data-name="Group 3" transform="translate(-1095.057 -1530.714)">
    <g id="Thank_You_Icon" data-name="Thank You Icon" transform="translate(1096 1532)">
      <path id="Path" d="M0,0,38.656,32.613,77.311,0Z" transform="translate(0.343 43.156)" fill="#23364e" stroke="#fff" stroke-linecap="round" stroke-linejoin="round" stroke-miterlimit="10" stroke-width="2.571"/>
      <path id="Path-2" data-name="Path" d="M0,32.656,38.656,0,77.311,32.656Z" transform="translate(0.343 10.5)" fill="#d3eee9" stroke="#23364e" stroke-linecap="round" stroke-linejoin="round" stroke-miterlimit="10" stroke-width="2.571"/>
      <path id="Path-3" data-name="Path" d="M57.941,8.871v70.2H0V0H49.027" transform="translate(10.028)" fill="#d3eee9" stroke="#23364e" stroke-linecap="round" stroke-linejoin="round" stroke-miterlimit="10" stroke-width="2.571"/>
      <path id="Path-4" data-name="Path" d="M2.314,34.67V0H0V34.67a1.263,1.263,0,0,0,1.286,1.286H3.6A1.263,1.263,0,0,1,2.314,34.67Z" transform="translate(8.743 44.398)" fill="#23364e"/>
      <path id="Path-5" data-name="Path" d="M1.286,29.7A1.263,1.263,0,0,1,0,30.985H2.314A1.263,1.263,0,0,0,3.6,29.7V0L1.286,1.971Z" transform="translate(67.969 49.37)" fill="#585963" opacity="0.5"/>
      <path id="Path-6" data-name="Path" d="M0,10.071H.9l1.414-.814V1.971L0,0Z" transform="translate(69.255 34.37)" fill="#585963" opacity="0.5"/>
      <path id="Path-7" data-name="Path" d="M52.112,1.543,50.27,0,45.555,2.743l-1.371.814h-.943v.557L20.314,17.356l-4.886-4.114a.856.856,0,0,0-1.157,0L0,25.028H.086L12.471,35.484a.9.9,0,0,0,.557.214,1.009,1.009,0,0,0,.557-.214l29.7-25.07L45.6,8.443,51.47,3.514l.771-.643h0l.086-.086h0a1.341,1.341,0,0,0,.214-.429h0V2.228A1.123,1.123,0,0,0,52.112,1.543Z" transform="translate(26.013 40.97)" fill="#585963" opacity="0.5"/>
      <path id="Path-8" data-name="Path" d="M52.5,25.113,38.184,13.2a.906.906,0,0,0-1.157,0l-4.886,4.114L2.186,0,.343,1.543A.756.756,0,0,0,0,2.186v.129H0a.527.527,0,0,0,.214.429h0L.3,2.828h0L38.956,35.442a.9.9,0,0,0,.557.214,1.009,1.009,0,0,0,.557-.214L52.455,24.985" transform="translate(0.686 42.256)" fill="#585963" opacity="0.5"/>
      <path id="Path-9" data-name="Path" d="M0,0,38.656,22.285,0,44.613Z" transform="translate(0.343 43.156)" fill="#6dc7b6" stroke="#23364e" stroke-linecap="round" stroke-linejoin="round" stroke-miterlimit="10" stroke-width="2.571"/>
      <path id="Path-10" data-name="Path" d="M38.656,44.613,0,22.285,38.656,0Z" transform="translate(38.999 43.156)" fill="#6dc7b6" stroke="#23364e" stroke-linecap="round" stroke-linejoin="round" stroke-miterlimit="10" stroke-width="2.571"/>
      <path id="Path-11" data-name="Path" d="M0,32.613,38.656,0,77.311,32.613Z" transform="translate(0.343 55.155)" fill="#6dc7b6" stroke="#23364e" stroke-linecap="round" stroke-linejoin="round" stroke-miterlimit="10" stroke-width="2.571"/>
      <path id="Path-12" data-name="Path" d="M0,8.871H8.914L0,0Z" transform="translate(59.055)" fill="#509a8f" stroke="#23364e" stroke-linecap="round" stroke-linejoin="round" stroke-miterlimit="10" stroke-width="2.571"/>
      <g id="Group" transform="translate(17.571 20.142)">
        <path id="Path-13" data-name="Path" d="M10.028,9.771a1.678,1.678,0,0,1-.386-1.114,3.8,3.8,0,0,1,.086-.643c.043-.257.086-.471.129-.686s.086-.386.086-.429c.086-.3.129-.643.214-.943a6.022,6.022,0,0,0,.086-.771c0-.471-.171-.686-.514-.686a.8.8,0,0,0-.6.343A2.3,2.3,0,0,0,8.7,5.7c-.257,1.414-.557,2.914-.857,4.5H5.871L7.757,1.457c-.3-.043-.943-.086-1.8-.214l-1.928,9H2.057L4.028,1.157a3.154,3.154,0,0,0-2.014.686,2.744,2.744,0,0,0-.729,2.143,2.2,2.2,0,0,0,.086.686,1.8,1.8,0,0,0,.086.214,1.649,1.649,0,0,1-1.114-.3A1.252,1.252,0,0,1,0,3.557,3.128,3.128,0,0,1,.514,1.8,3.415,3.415,0,0,1,2.1.514,6.321,6.321,0,0,1,4.8,0,11,11,0,0,1,5.957.129,16.074,16.074,0,0,0,8.485.343,3.247,3.247,0,0,0,10.157,0c-.129.257-.257.514-.343.729a9.24,9.24,0,0,0-.343,1.114c-.129.514-.3,1.286-.514,2.271A2.228,2.228,0,0,1,10.585,3.3a1.531,1.531,0,0,1,1.114.386,1.586,1.586,0,0,1,.429,1.157,7.851,7.851,0,0,1-.086.9c-.043.343-.171.729-.257,1.2-.086.3-.129.557-.214.814a4.457,4.457,0,0,0-.086.643.64.64,0,0,0,.129.429A.571.571,0,0,0,12.042,9a.721.721,0,0,0,.643-.3,4.178,4.178,0,0,0,.514-.9h.557A4.511,4.511,0,0,1,12.6,9.814a2.187,2.187,0,0,1-1.371.514A2.244,2.244,0,0,1,10.028,9.771Z" transform="translate(0.3 0.557)" fill="#23364e"/>
        <path id="Shape" d="M4.286,6.643A1.494,1.494,0,0,1,3.857,5.7a3,3,0,0,1-.9.9A2.158,2.158,0,0,1,1.8,6.943,1.563,1.563,0,0,1,.514,6.471,2.3,2.3,0,0,1,0,4.8,6.667,6.667,0,0,1,.386,2.657,5.069,5.069,0,0,1,1.586.771,2.618,2.618,0,0,1,3.515,0a1.609,1.609,0,0,1,.857.171.523.523,0,0,1,.257.515V.771L4.8.043H6.772L5.785,4.714a1.475,1.475,0,0,0-.042.428c0,.386.171.6.557.6A.968.968,0,0,0,6.986,5.4a2.744,2.744,0,0,0,.428-.943h.557A4.169,4.169,0,0,1,6.728,6.471a2.638,2.638,0,0,1-1.5.515A1.411,1.411,0,0,1,4.286,6.643Z" transform="translate(13.371 3.771)" fill="#23364e"/>
        <path id="Path-14" data-name="Path" d="M4.286,6.514A1.678,1.678,0,0,1,3.9,5.4a3.8,3.8,0,0,1,.086-.643c.043-.257.086-.471.129-.686s.086-.386.086-.429c.086-.3.129-.643.214-.943A6.022,6.022,0,0,0,4.5,1.928c0-.471-.171-.686-.514-.686a.882.882,0,0,0-.643.343,1.961,1.961,0,0,0-.429.9L1.971,6.9H0L1.457.043H3.428L3.257.771A2.092,2.092,0,0,1,4.843,0,1.531,1.531,0,0,1,5.957.386a1.586,1.586,0,0,1,.429,1.157,7.851,7.851,0,0,1-.086.9c-.043.343-.171.729-.257,1.2-.086.3-.129.557-.214.814a4.457,4.457,0,0,0-.086.643.64.64,0,0,0,.129.429A.571.571,0,0,0,6.3,5.7a.721.721,0,0,0,.643-.3,4.178,4.178,0,0,0,.514-.9h.557A4.511,4.511,0,0,1,6.857,6.514a2.187,2.187,0,0,1-1.371.514A1.947,1.947,0,0,1,4.286,6.514Z" transform="translate(20.185 3.814)" fill="#23364e"/>
        <path id="Path-15" data-name="Path" d="M4.414,9.257A1.43,1.43,0,0,1,3.986,8.1a4.772,4.772,0,0,1,.086-.729L4.2,6.857a2.086,2.086,0,0,0,.043-.514q0-.643-.514-.643a1.117,1.117,0,0,0-.471.129,3.3,3.3,0,0,0-.557.386L1.971,9.6H0L1.971.257,3.986,0,2.957,4.843l2.657-2.1H6.985L4.243,4.628a1.607,1.607,0,0,1,.471-.043,1.36,1.36,0,0,1,1.114.471,1.715,1.715,0,0,1,.386,1.157,1.921,1.921,0,0,1-.043.514L6,7.414a1.886,1.886,0,0,0-.086.429.455.455,0,0,0,.514.514.721.721,0,0,0,.643-.3,4.178,4.178,0,0,0,.514-.9h.557C7.585,8.828,6.728,9.685,5.614,9.685A2.129,2.129,0,0,1,4.414,9.257Z" transform="translate(27.128 1.114)" fill="#23364e"/>
        <path id="Shape-2" data-name="Shape" d="M.9,7.028a1.984,1.984,0,0,1-.686-.643A1.949,1.949,0,0,1,0,5.529a1.476,1.476,0,0,1,.214-.771,1.086,1.086,0,0,1,.514-.472,20.119,20.119,0,0,0,.943-1.929c.257-.643.514-1.372.771-2.1L4.457,0c.043,1.157.129,2.443.214,3.814.043.557.086.943.086,1.2a2.022,2.022,0,0,1-.429,1.372A2.949,2.949,0,0,1,3.3,7.157a3.376,3.376,0,0,1-1.286.214A3.769,3.769,0,0,1,.9,7.028Z" transform="translate(34.327 3.471)" fill="#23364e"/>
        <path id="Shape-3" data-name="Shape" d="M.343,10.071A1.074,1.074,0,0,1,0,9.3a.93.93,0,0,1,.343-.771,1.033,1.033,0,0,1,.771-.3,1.091,1.091,0,0,1,.771,1.842,1.074,1.074,0,0,1-.771.343A1.074,1.074,0,0,1,.343,10.071Zm.6-2.914L1.971.3l2.1-.3L2.1,7.157Z" transform="translate(39.556 0.386)" fill="#23364e"/>
      </g>
    </g>
  </g>
</svg>
