<svg xmlns="http://www.w3.org/2000/svg" width="129.818" height="20.025" viewBox="0 0 129.818 20.025">
  <g id="Today_Logo" data-name="Today Logo" transform="translate(0 -0.04)">
    <g id="Group" transform="translate(42.997 2.422)">
      <path id="Path" d="M0,3.936H4.744V17.057h4.5V3.936h4.724V0H0Z" transform="translate(0.081 0.283)"/>
      <g id="Group-2" data-name="Group" transform="translate(15.14)">
        <path id="Shape" d="M5.491,17A9,9,0,0,1,2.6,15.18,8.476,8.476,0,0,1,.687,12.395,9.384,9.384,0,0,1,0,8.822,8.945,8.945,0,0,1,.687,5.249,8.471,8.471,0,0,1,2.6,2.462,8.676,8.676,0,0,1,5.491.646,10.1,10.1,0,0,1,9.124,0a10.081,10.081,0,0,1,3.614.646,8.672,8.672,0,0,1,2.886,1.816,8.343,8.343,0,0,1,1.9,2.786,9.394,9.394,0,0,1,.686,3.573,8.966,8.966,0,0,1-.686,3.573,8.154,8.154,0,0,1-1.9,2.786A8.672,8.672,0,0,1,12.738,17a10.081,10.081,0,0,1-3.614.646A10.1,10.1,0,0,1,5.491,17Z" transform="translate(0.081)"/>
        <path id="Shape-2" data-name="Shape" d="M0,17.058V0H7.166A11.346,11.346,0,0,1,10.86.585a8.82,8.82,0,0,1,2.907,1.7,7.776,7.776,0,0,1,1.918,2.664,8.76,8.76,0,0,1,.686,3.573,8.76,8.76,0,0,1-.686,3.573,8.063,8.063,0,0,1-1.918,2.685,8.474,8.474,0,0,1-2.907,1.7,11.31,11.31,0,0,1-3.674.586Z" transform="translate(21.014 0.283)"/>
      </g>
      <path id="Shape-3" data-name="Shape" d="M13.323,17.078,12.5,14.635H5.915l-.828,2.443H0l.041-.1L6.42,0h5.571V.06L18.41,17.078Z" transform="translate(52.848 0.283)"/>
      <path id="Path-2" data-name="Path" d="M12.314,0,8.72,6.177,5.107.04,5.087,0H0L6.48,10.194v6.863h4.5V10.194L17.421,0Z" transform="translate(69.401 0.283)"/>
    </g>
    <g id="Group-3" data-name="Group" transform="translate(0 0)">
      <path id="Path-3" data-name="Path" d="M19.661,0A19.664,19.664,0,0,0,.02,18.652C0,19,0,19.339,0,19.661H5.107c0-.323.02-.666.04-.989a14.565,14.565,0,0,1,29.068.081c.02.3.02.606.02.908h5.107c0-.262,0-.545-.02-.807A19.676,19.676,0,0,0,19.661,0" transform="translate(0 0.04)" fill="#292d34"/>
      <path id="Path-4" data-name="Path" d="M13.1,0A13.115,13.115,0,0,0,.02,12.253c-.02.283-.02.565-.02.868H5.107a6.945,6.945,0,0,1,.061-.929,8.014,8.014,0,0,1,15.927.061,6.105,6.105,0,0,1,.04.868h5.107c0-.283,0-.565-.02-.828A13.173,13.173,0,0,0,13.1,0" transform="translate(6.561 6.601)" fill="#292d34"/>
      <path id="Path-5" data-name="Path" d="M6.561,0A6.563,6.563,0,0,0,.121,5.309,6.213,6.213,0,0,0,0,6.54H13.121a6.945,6.945,0,0,0-.061-.929A6.554,6.554,0,0,0,6.561,0" transform="translate(13.101 13.161)" fill="#292d34"/>
    </g>
  </g>
</svg>
