<svg xmlns="http://www.w3.org/2000/svg" width="26" height="22" viewBox="0 0 26 22">
  <path id="Twitter" d="M26,2.6a10.3,10.3,0,0,1-3.063.874A5.53,5.53,0,0,0,25.283.407a10.413,10.413,0,0,1-3.389,1.346A5.225,5.225,0,0,0,18,0a5.447,5.447,0,0,0-5.332,5.554,5.75,5.75,0,0,0,.137,1.265,14.949,14.949,0,0,1-11-5.8,5.722,5.722,0,0,0-.722,2.8A5.615,5.615,0,0,0,3.461,8.431a5.178,5.178,0,0,1-2.417-.693v.068a5.5,5.5,0,0,0,4.281,5.446,5.014,5.014,0,0,1-1.406.2,5.105,5.105,0,0,1-1-.1A5.368,5.368,0,0,0,7.9,17.2a10.449,10.449,0,0,1-7.9,2.3A14.691,14.691,0,0,0,8.177,22c9.813,0,15.177-8.462,15.177-15.8,0-.242,0-.483-.014-.72A11.049,11.049,0,0,0,26,2.6" fill="#fff"/>
</svg>
