<svg id="USA_Today_Log" data-name="USA Today Log" xmlns="http://www.w3.org/2000/svg" width="149.784" height="27" viewBox="0 0 149.784 27">
  <ellipse id="Oval" cx="13.483" cy="13.5" rx="13.483" ry="13.5" transform="translate(0)" fill="#1a1a1a"/>
  <g id="Group" transform="translate(32.865 5.906)">
    <path id="Path" d="M0,9.675V0H4.377V8.395c0,1.66.192,3.272,2.4,3.272s2.4-1.613,2.4-3.272V0h4.377V9.628c0,3.747-2.4,5.786-6.781,5.786C2.309,15.461,0,13.374,0,9.675Z" transform="translate(0.401 0.493)" fill="#1a1a1a"/>
    <path id="Path-2" data-name="Path" d="M0,13.278l2.078-2.832a4.72,4.72,0,0,0,3.542,1.718c1.134,0,1.795-.464,1.795-1.346,0-1.021-.945-1.346-2.6-1.811C2.645,8.357.708,7.242.708,4.689.708,1.9,3.07,0,6.376,0a7.482,7.482,0,0,1,5.148,1.718L9.588,4.55a3.96,3.96,0,0,0-2.976-1.3c-1.134,0-1.606.464-1.606,1.021,0,.929,1.134,1.161,2.362,1.578,2.456.743,4.345,1.857,4.345,4.6,0,2.832-2.078,4.968-5.857,4.968A8.036,8.036,0,0,1,0,13.278Z" transform="translate(14.58 0.493)" fill="#1a1a1a"/>
    <path id="Shape" d="M11.524,14.8l-.711-2.134H5.122L4.41,14.8H0C.048,14.8,5.643,0,5.643,0h4.743l5.643,14.8Z" transform="translate(26.91 0.493)" fill="#1a1a1a"/>
    <path id="Path-3" data-name="Path" d="M3.716,3.433H0V0H11.713V3.433H8V14.8H3.716Z" transform="translate(45.405 0.493)" fill="#1a1a1a"/>
    <path id="Shape-2" data-name="Shape" d="M0,7.73C0,4.052,2.663,0,8.322,0s8.323,4.1,8.323,7.73-2.663,7.684-8.323,7.684h-.1C2.632,15.415,0,11.388,0,7.73Z" transform="translate(57.119 0.493)" fill="#1a1a1a"/>
    <path id="Shape-3" data-name="Shape" d="M0,14.8V0H5.672C11.1,0,14.18,2.775,14.18,7.4c0,4.532-3.173,7.4-8.508,7.4Z" transform="translate(74.997 0.493)" fill="#1a1a1a"/>
    <path id="Shape-4" data-name="Shape" d="M11.524,14.8l-.711-2.134H5.122L4.41,14.8H0C.048,14.8,5.643,0,5.643,0h4.743l5.643,14.8Z" transform="translate(88.56 0.493)" fill="#1a1a1a"/>
    <path id="Path-4" data-name="Path" d="M5.694,9.51,0,0H4.785L6.842,3.665A11.345,11.345,0,0,1,8.038,6.4h.1a9.737,9.737,0,0,1,1.2-2.737L11.388,0h4.641L10.335,9.51V14.8H5.742V9.51Z" transform="translate(100.89 0.493)" fill="#1a1a1a"/>
  </g>
</svg>
