<svg xmlns="http://www.w3.org/2000/svg" width="107.051" height="115.304" viewBox="0 0 107.051 115.304">
  <g id="Wedding_Icon" data-name="Wedding Icon" transform="translate(-0.196 -0.208)">
    <rect id="Rectangle" width="9.194" height="6.504" transform="translate(69.297 25.919)" fill="#d3eee9"/>
    <g id="Group" transform="translate(56.24 25.43)">
      <path id="Path" d="M12.422,6.6H0L4.744,0H17.165Z" transform="translate(0.293 0.098)" fill="#6dc7b6" stroke="#23364e" stroke-linecap="round" stroke-linejoin="round" stroke-miterlimit="10" stroke-width="2.934"/>
      <path id="Path-2" data-name="Path" d="M4.744,6.6H17.214L12.422,0H0Z" transform="translate(17.459 0.098)" fill="#6dc7b6" stroke="#23364e" stroke-linecap="round" stroke-linejoin="round" stroke-miterlimit="10" stroke-width="2.934"/>
      <path id="Path-3" data-name="Path" d="M12.422,0H0L14.427,18.828h2.005Z" transform="translate(0.293 6.7)" fill="#509a8f" stroke="#23364e" stroke-linecap="round" stroke-linejoin="round" stroke-miterlimit="10" stroke-width="2.934"/>
      <path id="Path-4" data-name="Path" d="M3.961,0,0,18.828H1.956L16.432,0Z" transform="translate(18.241 6.7)" fill="#509a8f" stroke="#23364e" stroke-linecap="round" stroke-linejoin="round" stroke-miterlimit="10" stroke-width="2.934"/>
      <path id="Path-5" data-name="Path" d="M5.526,18.828,9.487,0H0L4.01,18.828Z" transform="translate(12.715 6.7)" fill="#6dc7b6" stroke="#23364e" stroke-linecap="round" stroke-linejoin="round" stroke-miterlimit="10" stroke-width="2.934"/>
    </g>
    <path id="Path-6" data-name="Path" d="M0,9.084.685.037c0-.049.1-.049.1,0l.685,9.047h0L.782,18.131c0,.049-.1.049-.1,0L0,9.084Z" transform="translate(85.974 2.751)" fill="#6dc7b6"/>
    <path id="Path-7" data-name="Path" d="M9.084,1.467.037.782c-.049,0-.049-.1,0-.1L9.084,0h0l9.047.685c.049,0,.049.1,0,.1l-9.047.685Z" transform="translate(77.623 11.101)" fill="#6dc7b6"/>
    <path id="Path-8" data-name="Path" d="M0,5.367.391.037c0-.049.049-.049.049,0L.831,5.367h0L.44,10.7c0,.049-.049.049-.049,0L0,5.367Z" transform="translate(99.471 19.28)" fill="#e8595a"/>
    <path id="Path-9" data-name="Path" d="M5.367.831.037.44c-.049,0-.049-.049,0-.049L5.367,0h0L10.7.391c.049,0,.049.049,0,.049L5.367.831Z" transform="translate(94.544 24.256)" fill="#e8595a"/>
    <path id="Path-10" data-name="Path" d="M11.517,1.809.073.978a.073.073,0,0,1,0-.147L11.517,0h0L22.961.831a.073.073,0,1,1,0,.147l-11.444.831Z" transform="translate(32.888 23.181)" fill="#6dc7b6"/>
    <path id="Path-11" data-name="Path" d="M1.809,11.517.978,22.961a.073.073,0,1,1-.147,0L0,11.517H0L.831.073a.073.073,0,0,1,.147,0l.831,11.444Z" transform="translate(43.525 12.544)" fill="#6dc7b6"/>
    <path id="Path-12" data-name="Path" d="M8.595,1.369.037.734c-.049,0-.049-.1,0-.1L8.595,0h0l8.558.636c.049,0,.049.1,0,.1l-8.558.636Z" transform="translate(54.492 8.118)" fill="#e8595a"/>
    <path id="Path-13" data-name="Path" d="M1.369,8.595.734,17.153c0,.049-.1.049-.1,0L0,8.595H0L.636.037c0-.049.1-.049.1,0l.636,8.558Z" transform="translate(62.402 0.208)" fill="#e8595a"/>
    <path id="Path-14" data-name="Path" d="M38.683,5.086a23.914,23.914,0,1,0,0,37.656,32.691,32.691,0,0,1,0-37.656Z" transform="translate(9.047 58.783)" fill="none"/>
    <ellipse id="Oval" cx="3.179" cy="11.884" rx="3.179" ry="11.884" transform="translate(50.567 70.813)" fill="none"/>
    <path id="Path-15" data-name="Path" d="M0,42.742A23.914,23.914,0,1,0,0,5.086,32.536,32.536,0,0,1,5.966,23.914,32.187,32.187,0,0,1,0,42.742Z" transform="translate(59.712 58.783)" fill="none"/>
    <path id="Path-16" data-name="Path" d="M2.788,9.634A25.96,25.96,0,0,1,18.975,4.059,26.31,26.31,0,1,1,2.788,51.1,31.408,31.408,0,0,1,.049,54.088,30.35,30.35,0,1,0,0,6.651,26.835,26.835,0,0,1,2.788,9.634Z" transform="translate(55.506 52.328)" fill="#6dc7b6"/>
    <path id="Path-17" data-name="Path" d="M8.118,3.13A24.143,24.143,0,0,0,5.379,0,29.991,29.991,0,0,0,0,17.263,30.354,30.354,0,0,0,5.379,34.526,23.691,23.691,0,0,0,8.118,31.4a26.367,26.367,0,0,1,0-28.267Z" transform="translate(44.161 65.434)" fill="#6dc7b6"/>
    <path id="Path-18" data-name="Path" d="M4.352,1.174C4.108.782,3.912.391,3.668,0A25.208,25.208,0,0,0,0,13.057,24.756,24.756,0,0,0,3.668,26.115c.245-.391.489-.782.685-1.174A23.977,23.977,0,0,1,1.174,13.057,23.477,23.477,0,0,1,4.352,1.174Z" transform="translate(49.393 69.591)" fill="#23364e"/>
    <path id="Path-19" data-name="Path" d="M15.454,1.223A23.914,23.914,0,1,1,.685,43.965,11.863,11.863,0,0,0,0,44.943,25.137,25.137,0,1,0,0,5.331a6.989,6.989,0,0,1,.685.978A24,24,0,0,1,15.454,1.223Z" transform="translate(59.027 57.511)" fill="#23364e"/>
    <path id="Path-20" data-name="Path" d="M6.9.734C6.6.489,6.309.245,5.966,0a32.691,32.691,0,0,0,0,37.656c.293-.245.636-.489.929-.734A31.694,31.694,0,0,1,6.9.734Z" transform="translate(41.715 63.869)" fill="#23364e"/>
    <path id="Path-21" data-name="Path" d="M20.784,0A32.7,32.7,0,0,0,0,7.433c.293.245.636.538.929.782a31.543,31.543,0,1,1,0,49C.636,57.462.342,57.756,0,58A32.735,32.735,0,1,0,20.784,0Z" transform="translate(53.697 49.931)" fill="#23364e"/>
    <path id="Path-22" data-name="Path" d="M16.187,1.174A25.137,25.137,0,1,1,.734,46.117c-.245.293-.489.636-.734.929a25.96,25.96,0,0,0,16.187,5.575A26.31,26.31,0,1,0,0,5.575c.245.293.489.636.734.929A25.056,25.056,0,0,1,16.187,1.174Z" transform="translate(58.294 56.387)" fill="#23364e"/>
    <path id="Path-23" data-name="Path" d="M6.553.831C6.26.538,5.966.293,5.673,0a31.694,31.694,0,0,0,0,36.189c.293-.245.587-.538.88-.831A29.991,29.991,0,0,1,1.174,18.095,29.637,29.637,0,0,1,6.553.831Z" transform="translate(42.987 64.602)" fill="#23364e"/>
    <path id="Path-24" data-name="Path" d="M4.842,1.076C4.6.734,4.352.342,4.108,0a26.367,26.367,0,0,0,0,28.267c.245-.342.489-.685.734-1.076a25.076,25.076,0,0,1,0-26.115Z" transform="translate(48.171 68.564)" fill="#23364e"/>
    <path id="Path-25" data-name="Path" d="M19.855,1.125A30.37,30.37,0,1,1,.88,55.213c-.293.293-.587.538-.88.831a31.543,31.543,0,1,0,0-49c.293.293.587.538.88.831A29.955,29.955,0,0,1,19.855,1.125Z" transform="translate(54.626 51.203)" fill="#23364e"/>
    <path id="Path-26" data-name="Path" d="M46.606,51.1A25.96,25.96,0,0,1,30.418,56.68,26.31,26.31,0,1,1,46.606,9.634a31.408,31.408,0,0,1,2.739-2.983,30.37,30.37,0,1,0,0,47.437C48.415,53.11,47.486,52.132,46.606,51.1Z" transform="translate(2.543 52.328)" fill="#d3eee9"/>
    <path id="Path-27" data-name="Path" d="M0,31.4a24.143,24.143,0,0,0,2.739,3.13A29.991,29.991,0,0,0,8.118,17.263,30.354,30.354,0,0,0,2.739,0,23.691,23.691,0,0,0,0,3.13,26.28,26.28,0,0,1,4.108,17.263,26.155,26.155,0,0,1,0,31.4Z" transform="translate(55.164 65.385)" fill="#d3eee9"/>
    <path id="Path-28" data-name="Path" d="M0,2.934A26.892,26.892,0,0,1,2.739,5.966,26.892,26.892,0,0,1,5.477,2.934,30.9,30.9,0,0,0,2.739,0,31.751,31.751,0,0,0,0,2.934Z" transform="translate(50.958 60.592)" fill="#d3eee9"/>
    <path id="Path-29" data-name="Path" d="M.929,0C.636.245.342.489,0,.734A31.408,31.408,0,0,0,2.739,3.717c.293-.245.636-.489.929-.782A22.351,22.351,0,0,1,.929,0Z" transform="translate(49.149 102.65)" fill="#509a8f"/>
    <path id="Path-30" data-name="Path" d="M.685,0C.44.342.245.685,0,1.027A32.466,32.466,0,0,0,2.739,4.108a11.863,11.863,0,0,0,.685-.978A24.143,24.143,0,0,1,.685,0Z" transform="translate(54.479 96.781)" fill="#509a8f"/>
    <path id="Path-31" data-name="Path" d="M0,2.983c.293.245.636.489.929.734A30.9,30.9,0,0,1,3.668.782C3.374.538,3.081.293,2.739,0A40.437,40.437,0,0,0,0,2.983Z" transform="translate(49.149 58.978)" fill="#d3eee9"/>
    <path id="Path-32" data-name="Path" d="M3.423.978C3.179.636,2.983.342,2.739,0A23.682,23.682,0,0,0,0,3.081c.245.342.489.685.685,1.027A24.143,24.143,0,0,1,3.423.978Z" transform="translate(54.479 64.456)" fill="#d3eee9"/>
    <path id="Path-33" data-name="Path" d="M0,3.032c.245.342.489.636.734.978A32.466,32.466,0,0,1,3.472.929C3.228.587,2.983.293,2.739,0A31.932,31.932,0,0,0,0,3.032Z" transform="translate(53.746 63.478)" fill="#d3eee9"/>
    <path id="Path-34" data-name="Path" d="M.88,0C.587.293.293.538,0,.831A30.9,30.9,0,0,0,2.739,3.766c.293-.245.587-.538.88-.831C2.69,2.005,1.761,1.027.88,0Z" transform="translate(50.078 101.867)" fill="#509a8f"/>
    <path id="Path-35" data-name="Path" d="M.734,0C.489.342.245.685,0,.978A26.893,26.893,0,0,0,2.739,4.01c.245-.293.489-.636.734-.929A32.466,32.466,0,0,1,.734,0Z" transform="translate(53.746 97.857)" fill="#509a8f"/>
    <path id="Path-36" data-name="Path" d="M0,2.934c.293.245.587.538.88.831A30.9,30.9,0,0,1,3.619.831C3.325.538,3.032.293,2.739,0A30.9,30.9,0,0,0,0,2.934Z" transform="translate(50.078 59.761)" fill="#d3eee9"/>
    <path id="Path-37" data-name="Path" d="M3.179,13.057A23.839,23.839,0,0,1,0,24.941c.245.391.44.782.685,1.174A25.208,25.208,0,0,0,4.352,13.057,24.756,24.756,0,0,0,.685,0C.44.391.2.782,0,1.174A23.214,23.214,0,0,1,3.179,13.057Z" transform="translate(53.697 69.64)" fill="#23364e"/>
    <path id="Path-38" data-name="Path" d="M0,36.923c.293.245.587.489.929.734A32.536,32.536,0,0,0,6.9,18.828,32.536,32.536,0,0,0,.929,0C.636.245.293.489,0,.734A31.538,31.538,0,0,1,5.673,18.828,31.423,31.423,0,0,1,0,36.923Z" transform="translate(58.832 63.82)" fill="#23364e"/>
    <path id="Path-39" data-name="Path" d="M32.766,64.26A31.543,31.543,0,1,1,52.621,8.216c.293-.245.587-.538.929-.782a32.766,32.766,0,1,0,0,50.665c-.293-.245-.636-.538-.929-.782A31.887,31.887,0,0,1,32.766,64.26Z" transform="translate(0.196 49.98)" fill="#23364e"/>
    <path id="Path-40" data-name="Path" d="M25.137,49.051A23.914,23.914,0,1,1,39.906,6.309a11.862,11.862,0,0,0,.685-.978,25.137,25.137,0,1,0,0,39.612,6.989,6.989,0,0,1-.685-.978A23.891,23.891,0,0,1,25.137,49.051Z" transform="translate(7.825 57.56)" fill="#23364e"/>
    <path id="Path-41" data-name="Path" d="M2.739,4.108c.245-.342.44-.685.685-1.027A32.466,32.466,0,0,0,.685,0,11.863,11.863,0,0,0,0,.978,24.143,24.143,0,0,1,2.739,4.108Z" transform="translate(49.54 64.456)" fill="#23364e"/>
    <path id="Path-42" data-name="Path" d="M2.739,3.717c.293-.245.587-.489.929-.734A31.408,31.408,0,0,0,.929,0C.636.245.293.489,0,.782A30.9,30.9,0,0,1,2.739,3.717Z" transform="translate(54.626 58.978)" fill="#23364e"/>
    <path id="Path-43" data-name="Path" d="M.929,1.565c.293-.245.587-.538.929-.782C1.565.538,1.272.245.929,0,.636.245.293.538,0,.782.293,1.027.587,1.32.929,1.565Z" transform="translate(52.817 57.365)" fill="#23364e"/>
    <path id="Path-44" data-name="Path" d="M1.614.978A11.863,11.863,0,0,1,.929,0C.636.245.293.489,0,.734a11.863,11.863,0,0,1,.685.978C1.027,1.467,1.32,1.223,1.614.978Z" transform="translate(58.098 62.891)" fill="#23364e"/>
    <path id="Path-45" data-name="Path" d="M.685,0C.44.342.245.636,0,.978c.293.245.587.489.929.734A6.989,6.989,0,0,0,1.614.734,4.382,4.382,0,0,1,.685,0Z" transform="translate(58.147 100.743)" fill="#fff"/>
    <path id="Path-46" data-name="Path" d="M.929,0C.636.245.342.538,0,.782c.293.245.587.538.929.782.293-.245.636-.538.929-.782A7.151,7.151,0,0,1,.929,0Z" transform="translate(52.817 106.416)" fill="#fff"/>
    <path id="Path-47" data-name="Path" d="M.685,0C.44.391.245.782,0,1.174c.245.391.44.734.685,1.076.245-.342.489-.734.685-1.076C1.125.782.88.391.685,0Z" transform="translate(53.061 94.581)" fill="#fff"/>
    <path id="Path-48" data-name="Path" d="M0,.734a11.863,11.863,0,0,1,.685.978c.293-.245.636-.489.929-.734A11.863,11.863,0,0,1,.929,0C.587.245.293.489,0,.734Z" transform="translate(47.731 100.792)" fill="#fff"/>
    <path id="Path-49" data-name="Path" d="M.929,1.712c.245-.342.44-.636.685-.978C1.32.489,1.027.245.685,0A6.989,6.989,0,0,0,0,.978C.342,1.223.636,1.467.929,1.712Z" transform="translate(47.682 62.891)" fill="#23364e"/>
    <path id="Path-50" data-name="Path" d="M.685,2.25c.245-.391.44-.782.685-1.174C1.125.685.929.342.685,0,.44.342.2.734,0,1.076A9.213,9.213,0,0,0,.685,2.25Z" transform="translate(53.061 68.515)" fill="#23364e"/>
    <path id="Path-51" data-name="Path" d="M.88,1.809c.245-.342.44-.636.685-.978C1.272.538.978.293.685,0A11.863,11.863,0,0,0,0,.978C.293,1.223.587,1.516.88,1.809Z" transform="translate(48.66 63.624)" fill="#23364e"/>
    <path id="Path-52" data-name="Path" d="M.734,2.1c.245-.391.44-.734.685-1.076L.685,0C.44.342.2.685,0,1.027.245,1.369.489,1.712.734,2.1Z" transform="translate(52.279 67.537)" fill="#23364e"/>
    <path id="Path-53" data-name="Path" d="M0,.831c.245.342.44.636.685.978.293-.245.587-.538.88-.831A11.863,11.863,0,0,1,.88,0,4.775,4.775,0,0,1,0,.831Z" transform="translate(48.611 99.911)" fill="#fff"/>
    <path id="Path-54" data-name="Path" d="M0,1.076c.245.342.44.685.685,1.027l.734-1.027C1.174.734.929.342.734,0,.489.391.245.734,0,1.076Z" transform="translate(52.279 95.706)" fill="#fff"/>
    <path id="Path-55" data-name="Path" d="M1.663.929C1.418.636,1.174.293.929,0,.636.245.293.489,0,.734c.245.293.489.636.734.929C1.027,1.418,1.369,1.174,1.663.929Z" transform="translate(57.365 61.962)" fill="#23364e"/>
    <path id="Path-56" data-name="Path" d="M.88,0C.587.293.293.538,0,.831c.293.245.587.538.929.782.293-.293.587-.538.88-.831C1.467.489,1.174.245.88,0Z" transform="translate(53.746 105.633)" fill="#fff"/>
    <path id="Path-57" data-name="Path" d="M.734,0C.489.293.245.636,0,.929c.293.245.587.489.929.734.245-.293.489-.636.734-.929C1.369.538,1.027.245.734,0Z" transform="translate(57.365 101.721)" fill="#fff"/>
    <path id="Path-58" data-name="Path" d="M.88,1.614c.293-.245.587-.489.929-.782C1.516.538,1.223.293.929,0,.636.245.293.489,0,.782.293,1.027.587,1.32.88,1.614Z" transform="translate(53.746 58.147)" fill="#23364e"/>
    <path id="Path-59" data-name="Path" d="M26.31,51.447A25.137,25.137,0,1,1,41.764,6.5c.245-.293.489-.636.734-.929A25.96,25.96,0,0,0,26.31,0,26.31,26.31,0,1,0,42.5,47.046c-.245-.293-.489-.636-.734-.929A25.056,25.056,0,0,1,26.31,51.447Z" transform="translate(6.651 56.387)" fill="#23364e"/>
    <path id="Path-60" data-name="Path" d="M0,35.358c.293.293.587.538.88.831A31.538,31.538,0,0,0,6.553,18.095,31.538,31.538,0,0,0,.88,0C.587.245.293.538,0,.831A29.991,29.991,0,0,1,5.379,18.095,29.748,29.748,0,0,1,0,35.358Z" transform="translate(57.903 64.602)" fill="#23364e"/>
    <path id="Path-61" data-name="Path" d="M0,27.191c.245.342.489.734.734,1.076A26.28,26.28,0,0,0,4.842,14.133,26.405,26.405,0,0,0,.734,0C.489.342.245.685,0,1.076A25.208,25.208,0,0,1,3.668,14.133,25.077,25.077,0,0,1,0,27.191Z" transform="translate(54.43 68.515)" fill="#23364e"/>
    <path id="Path-62" data-name="Path" d="M31.543,61.913A30.345,30.345,0,1,1,50.518,7.874c.293-.293.587-.538.88-.831a31.543,31.543,0,1,0,0,49c-.293-.293-.587-.538-.88-.831A30.194,30.194,0,0,1,31.543,61.913Z" transform="translate(1.418 51.105)" fill="#23364e"/>
    <path id="Path-63" data-name="Path" d="M2.739,3.766c.293-.293.587-.538.88-.831A30.9,30.9,0,0,0,.88,0C.587.245.293.538,0,.831A26.231,26.231,0,0,1,2.739,3.766Z" transform="translate(53.746 59.761)" fill="#23364e"/>
    <path id="Path-64" data-name="Path" d="M2.739,4.01c.245-.342.489-.685.734-.978A26.892,26.892,0,0,0,.734,0C.489.293.245.636,0,.929A20.562,20.562,0,0,1,2.739,4.01Z" transform="translate(50.225 63.527)" fill="#23364e"/>
    <path id="Path-65" data-name="Path" d="M.929,1.614c.293-.293.587-.538.88-.831C1.516.538,1.223.245.88,0,.587.293.293.538,0,.831A7.151,7.151,0,0,1,.929,1.614Z" transform="translate(51.887 58.147)" fill="#23364e"/>
    <path id="Path-66" data-name="Path" d="M0,.782c.293.293.587.538.88.831.293-.245.636-.489.929-.782C1.516.587,1.223.293.929,0A7.151,7.151,0,0,1,0,.782Z" transform="translate(51.887 105.584)" fill="#fff"/>
    <path id="Path-67" data-name="Path" d="M.929,1.663c.245-.293.489-.636.734-.929C1.369.489,1.076.245.734,0,.489.293.245.636,0,.929.293,1.174.636,1.418.929,1.663Z" transform="translate(48.415 61.962)" fill="#23364e"/>
    <path id="Path-68" data-name="Path" d="M.685,0C.44.342.245.636,0,.978c.293.293.587.538.88.831A11.863,11.863,0,0,0,1.565.831C1.272.538.978.245.685,0Z" transform="translate(57.218 99.96)" fill="#fff"/>
    <path id="Path-69" data-name="Path" d="M0,.734c.245.293.489.636.734.929.293-.245.636-.489.929-.734C1.418.636,1.174.293.929,0,.636.245.293.538,0,.734Z" transform="translate(48.415 101.721)" fill="#fff"/>
    <path id="Path-70" data-name="Path" d="M.685,2.1c.245-.342.489-.734.734-1.076C1.174.685.978.342.734,0L0,1.027C.245,1.369.44,1.712.685,2.1Z" transform="translate(53.746 67.537)" fill="#23364e"/>
    <path id="Path-71" data-name="Path" d="M1.565.978C1.32.636,1.125.342.88,0,.587.245.293.538,0,.831a11.863,11.863,0,0,1,.685.978A4.775,4.775,0,0,1,1.565.978Z" transform="translate(57.267 63.624)" fill="#23364e"/>
    <path id="Path-72" data-name="Path" d="M.685,0C.44.391.245.734,0,1.076L.734,2.1c.245-.342.489-.685.685-1.027C1.174.734.929.391.685,0Z" transform="translate(53.746 95.706)" fill="#fff"/>
    <path id="Path-73" data-name="Path" d="M.734,2.005,1.467.978C1.223.636.978.293.734,0,.489.342.245.636,0,.978A9.329,9.329,0,0,1,.734,2.005Z" transform="translate(53.012 66.559)" fill="#23364e"/>
    <path id="Path-74" data-name="Path" d="M.88,0C.587.293.293.538,0,.831c.293.293.587.538.88.831.293-.245.587-.538.88-.831C1.467.538,1.174.293.88,0Z" transform="translate(52.865 104.802)" fill="#fff"/>
    <path id="Path-75" data-name="Path" d="M.734,0C.489.342.245.636,0,.929c.293.293.587.538.88.831.245-.293.489-.636.734-.929C1.32.538,1.027.245.734,0Z" transform="translate(56.484 100.938)" fill="#fff"/>
    <path id="Path-76" data-name="Path" d="M1.614.929C1.369.636,1.125.293.88,0,.587.245.293.538,0,.831c.245.293.489.636.734.929C1.027,1.467,1.32,1.223,1.614.929Z" transform="translate(56.484 62.695)" fill="#23364e"/>
    <path id="Path-77" data-name="Path" d="M.734,0,0,1.027c.245.342.489.685.734.978.245-.342.489-.636.734-.978C1.223.685.929.342.734,0Z" transform="translate(53.012 96.83)" fill="#fff"/>
    <path id="Path-78" data-name="Path" d="M.88,1.761c.245-.342.489-.636.734-.929C1.32.538,1.027.293.734,0,.489.293.245.636,0,.929.293,1.223.587,1.467.88,1.761Z" transform="translate(49.344 62.695)" fill="#23364e"/>
    <path id="Path-79" data-name="Path" d="M0,.831c.245.293.489.636.734.929.293-.245.587-.538.88-.831C1.369.636,1.125.293.88,0,.587.293.293.587,0,.831Z" transform="translate(49.344 100.889)" fill="#fff"/>
    <path id="Path-80" data-name="Path" d="M5.477,3.032A26.892,26.892,0,0,1,2.739,0,26.892,26.892,0,0,1,0,3.032,30.9,30.9,0,0,0,2.739,5.966,38.871,38.871,0,0,0,5.477,3.032Z" transform="translate(51.007 98.835)" fill="#6dc7b6"/>
    <path id="Path-81" data-name="Path" d="M.929,0C.636.245.342.489,0,.734A31.408,31.408,0,0,0,2.739,3.717c.293-.245.636-.489.929-.782A22.351,22.351,0,0,1,.929,0Z" transform="translate(49.149 102.65)" fill="#23364e"/>
    <path id="Path-82" data-name="Path" d="M.685,0C.44.342.245.685,0,1.027A32.466,32.466,0,0,0,2.739,4.108a11.863,11.863,0,0,0,.685-.978A24.143,24.143,0,0,1,.685,0Z" transform="translate(54.479 96.781)" fill="#23364e"/>
    <path id="Path-83" data-name="Path" d="M.88,0C.587.293.293.538,0,.831A30.9,30.9,0,0,0,2.739,3.766c.293-.245.587-.538.88-.831C2.69,2.005,1.761,1.027.88,0Z" transform="translate(50.078 101.867)" fill="#23364e"/>
    <path id="Path-84" data-name="Path" d="M.734,0C.489.342.245.685,0,.978A26.893,26.893,0,0,0,2.739,4.01c.245-.293.489-.636.734-.929A32.466,32.466,0,0,1,.734,0Z" transform="translate(53.746 97.857)" fill="#23364e"/>
    <path id="Path-85" data-name="Path" d="M0,3.13c.245.342.44.636.685.978A23.682,23.682,0,0,0,3.423,1.027C3.179.685,2.934.342,2.739,0A33.011,33.011,0,0,1,0,3.13Z" transform="translate(49.54 96.83)" fill="#6dc7b6"/>
    <path id="Path-86" data-name="Path" d="M3.668.734C3.374.489,3.032.245,2.739,0A30.9,30.9,0,0,1,0,2.934c.293.245.587.489.929.782C1.907,2.739,2.788,1.761,3.668.734Z" transform="translate(54.626 102.699)" fill="#6dc7b6"/>
    <path id="Path-87" data-name="Path" d="M.685,0C.44.342.245.636,0,.978c.293.245.587.489.929.734A6.989,6.989,0,0,0,1.614.734,4.382,4.382,0,0,1,.685,0Z" transform="translate(58.147 100.743)" fill="#23364e"/>
    <path id="Path-88" data-name="Path" d="M.929,0C.636.245.342.538,0,.782c.293.245.587.538.929.782.293-.245.636-.538.929-.782A7.151,7.151,0,0,1,.929,0Z" transform="translate(52.817 106.416)" fill="#23364e"/>
    <path id="Path-89" data-name="Path" d="M.685,0C.44.391.245.782,0,1.174c.245.391.44.734.685,1.076.245-.342.489-.734.685-1.076C1.125.782.88.391.685,0Z" transform="translate(53.061 94.581)" fill="#23364e"/>
    <path id="Path-90" data-name="Path" d="M0,.734a11.863,11.863,0,0,1,.685.978c.293-.245.636-.489.929-.734A11.863,11.863,0,0,1,.929,0C.587.245.293.489,0,.734Z" transform="translate(47.731 100.792)" fill="#23364e"/>
    <path id="Path-91" data-name="Path" d="M0,.831c.245.342.44.636.685.978.293-.245.587-.538.88-.831A11.863,11.863,0,0,1,.88,0,4.775,4.775,0,0,1,0,.831Z" transform="translate(48.611 99.911)" fill="#23364e"/>
    <path id="Path-92" data-name="Path" d="M0,1.076c.245.342.44.685.685,1.027l.734-1.027C1.174.734.929.342.734,0,.489.391.245.734,0,1.076Z" transform="translate(52.279 95.706)" fill="#23364e"/>
    <path id="Path-93" data-name="Path" d="M.88,0C.587.293.293.538,0,.831c.293.245.587.538.929.782.293-.293.587-.538.88-.831C1.467.489,1.174.245.88,0Z" transform="translate(53.746 105.633)" fill="#23364e"/>
    <path id="Path-94" data-name="Path" d="M.734,0C.489.293.245.636,0,.929c.293.245.587.489.929.734.245-.293.489-.636.734-.929C1.369.538,1.027.245.734,0Z" transform="translate(57.365 101.721)" fill="#23364e"/>
    <path id="Path-95" data-name="Path" d="M0,3.081c.245.342.489.636.734.929A26.893,26.893,0,0,0,3.472.978C3.228.636,2.983.342,2.739,0A26.857,26.857,0,0,1,0,3.081Z" transform="translate(50.225 97.857)" fill="#6dc7b6"/>
    <path id="Path-96" data-name="Path" d="M3.619.831C3.325.587,3.032.293,2.739,0A30.9,30.9,0,0,1,0,2.934c.293.293.587.538.88.831A22.351,22.351,0,0,0,3.619.831Z" transform="translate(53.746 101.819)" fill="#6dc7b6"/>
    <path id="Path-97" data-name="Path" d="M0,.782c.293.293.587.538.88.831.293-.245.636-.489.929-.782C1.516.587,1.223.293.929,0A7.151,7.151,0,0,1,0,.782Z" transform="translate(51.887 105.584)" fill="#23364e"/>
    <path id="Path-98" data-name="Path" d="M.685,0C.44.342.245.636,0,.978c.293.293.587.538.88.831A11.863,11.863,0,0,0,1.565.831C1.272.538.978.245.685,0Z" transform="translate(57.218 99.96)" fill="#23364e"/>
    <path id="Path-99" data-name="Path" d="M0,.734c.245.293.489.636.734.929.293-.245.636-.489.929-.734C1.418.636,1.174.293.929,0,.636.245.293.538,0,.734Z" transform="translate(48.415 101.721)" fill="#23364e"/>
    <path id="Path-100" data-name="Path" d="M.685,0C.44.391.245.734,0,1.076L.734,2.1c.245-.342.489-.685.685-1.027C1.174.734.929.391.685,0Z" transform="translate(53.746 95.706)" fill="#23364e"/>
    <path id="Path-101" data-name="Path" d="M.88,0C.587.293.293.538,0,.831c.293.293.587.538.88.831.293-.245.587-.538.88-.831C1.467.538,1.174.293.88,0Z" transform="translate(52.865 104.802)" fill="#23364e"/>
    <path id="Path-102" data-name="Path" d="M.734,0C.489.342.245.636,0,.929c.293.293.587.538.88.831.245-.293.489-.636.734-.929C1.32.538,1.027.245.734,0Z" transform="translate(56.484 100.938)" fill="#23364e"/>
    <path id="Path-103" data-name="Path" d="M.734,0,0,1.027c.245.342.489.685.734.978.245-.342.489-.636.734-.978C1.223.685.929.342.734,0Z" transform="translate(53.012 96.83)" fill="#23364e"/>
    <path id="Path-104" data-name="Path" d="M0,.831c.245.293.489.636.734.929.293-.245.587-.538.88-.831C1.369.636,1.125.293.88,0,.587.293.293.587,0,.831Z" transform="translate(49.344 100.889)" fill="#23364e"/>
    <path id="Path-105" data-name="Path" d="M.88,1.663c.293-.293.587-.538.88-.831C1.467.538,1.174.293.88,0,.587.245.293.538,0,.831A7.082,7.082,0,0,0,.88,1.663Z" transform="translate(52.865 58.881)" fill="#23364e"/>
    <path id="Path-106" data-name="Path" d="M10.417,5.722c-.293-.293-.587-.538-.88-.831A26.409,26.409,0,0,1,6.8,1.907c-.245-.293-.489-.636-.734-.929A6.989,6.989,0,0,1,5.379,0,24.738,24.738,0,0,1,0,3.179c.245.342.44.685.685,1.027s.489.685.734.978c.831,1.125,1.761,2.152,2.69,3.179.293.293.587.587.88.929l.88.88A29.752,29.752,0,0,0,11.346,6.5,7.151,7.151,0,0,1,10.417,5.722Z" transform="translate(42.4 101.476)" fill="#585963" opacity="0.5"/>
    <path id="Path-107" data-name="Path" d="M8.314,5.771c-.245-.342-.489-.734-.734-1.076a24.143,24.143,0,0,0-2.739-3.13c-.293-.293-.587-.538-.88-.831C3.668.489,3.374.245,3.032,0A34.705,34.705,0,0,0,0,5.233c.293.293.636.587.929.88s.587.636.88.978a17.879,17.879,0,0,1,2.739,4.3A15.262,15.262,0,0,1,5.282,13.3a16.177,16.177,0,0,1,.685,3.13A23.824,23.824,0,0,1,9,6.993,7.245,7.245,0,0,0,8.314,5.771Z" transform="translate(44.698 63.869)" fill="#585963" opacity="0.5"/>
    <path id="Path-108" data-name="Path" d="M13.155,7.385a4.186,4.186,0,0,0,1.418-3.13A4.258,4.258,0,0,0,10.319,0H4.255A4.258,4.258,0,0,0,0,4.255,4.214,4.214,0,0,0,1.027,6.993,26.759,26.759,0,0,1,6.26,6.455,26.663,26.663,0,0,1,13.155,7.385Z" transform="translate(68.221 51.105)" fill="#585963" opacity="0.5"/>
    <path id="Path-109" data-name="Path" d="M5.233,0A26,26,0,0,0,0,.538a4,4,0,0,0,1.223.978,22.369,22.369,0,0,1,4.059-.342,22,22,0,0,1,5.428.636,4.515,4.515,0,0,0,1.467-.88A27.331,27.331,0,0,0,5.233,0Z" transform="translate(69.248 57.56)" fill="#fff"/>
    <path id="Path-110" data-name="Path" d="M5.233,0A26,26,0,0,0,0,.538a4,4,0,0,0,1.223.978,22.369,22.369,0,0,1,4.059-.342,22,22,0,0,1,5.428.636,4.515,4.515,0,0,0,1.467-.88A27.331,27.331,0,0,0,5.233,0Z" transform="translate(69.248 57.56)" fill="#23364e" opacity="0.5"/>
    <path id="Path-111" data-name="Path" d="M9.292,6.455H3.228A3.225,3.225,0,0,1,0,3.228H0A3.225,3.225,0,0,1,3.228,0H9.292a3.225,3.225,0,0,1,3.228,3.228h0A3.225,3.225,0,0,1,9.292,6.455Z" transform="translate(67.439 51.105)" fill="#6dc7b6" stroke="#23364e" stroke-miterlimit="10" stroke-width="2.934"/>
  </g>
</svg>
