<svg xmlns="http://www.w3.org/2000/svg" width="87.708" height="82.506" viewBox="0 0 87.708 82.506">
  <g id="Work_Icon" data-name="Work Icon" transform="translate(0.949 0.987)">
    <path id="Path" d="M29.35,6.834A19.172,19.172,0,0,0,0,6.834H3.873V8.581a15.149,15.149,0,0,1,21.6,0V6.872H29.35Z" transform="translate(28.211 0.152)" fill="#d3eee9" stroke="#23364e" stroke-linejoin="round" stroke-miterlimit="10" stroke-width="2.278"/>
    <g id="Group" transform="translate(27.717 5.695)">
      <g id="Group-2" data-name="Group" transform="translate(25.819)">
        <g id="Group-3" data-name="Group">
          <path id="Path-2" data-name="Path" d="M4.139,10.916H0V.854a2.933,2.933,0,0,1,4.139,0Z" transform="translate(0.152 0.323)" fill="#6dc7b6"/>
          <path id="Path-3" data-name="Path" d="M4.139,10.916H0V.854a2.933,2.933,0,0,1,4.139,0Z" transform="translate(0.152 0.323)" fill="none" stroke="#23364e" stroke-miterlimit="10" stroke-width="2.278"/>
        </g>
        <circle id="Oval" cx="0.949" cy="0.949" r="0.949" transform="translate(1.291 2.088)" fill="#23364e"/>
      </g>
      <g id="Group-4" data-name="Group">
        <g id="Group-5" data-name="Group">
          <path id="Path-4" data-name="Path" d="M4.139,10.916H0V.854a2.933,2.933,0,0,1,4.139,0Z" transform="translate(0.228 0.323)" fill="#6dc7b6"/>
          <path id="Path-5" data-name="Path" d="M4.139,10.916H0V.854a2.933,2.933,0,0,1,4.139,0Z" transform="translate(0.228 0.323)" fill="none" stroke="#23364e" stroke-miterlimit="10" stroke-width="2.278"/>
        </g>
        <circle id="Oval-2" data-name="Oval" cx="0.949" cy="0.949" r="0.949" transform="translate(1.367 2.088)" fill="#23364e"/>
      </g>
    </g>
    <path id="Path-6" data-name="Path" d="M84.025,65.116H1.4a1.4,1.4,0,0,1-1.4-1.4V1.4A1.4,1.4,0,0,1,1.4,0h82.62a1.4,1.4,0,0,1,1.4,1.4V63.75A1.419,1.419,0,0,1,84.025,65.116Z" transform="translate(0.19 15.263)" fill="#6dc7b6" stroke="#fff" stroke-miterlimit="10" stroke-width="2.278"/>
    <path id="Path-7" data-name="Path" d="M50.385,28.4V21.908a.3.3,0,0,0-.3-.3H35.311a.3.3,0,0,0-.3.3V28.4A44.957,44.957,0,0,1,0,0V4.48a44.957,44.957,0,0,0,35.007,28.4v2.81a.3.3,0,0,0,.3.3h14.77a.3.3,0,0,0,.3-.3v-2.81A44.957,44.957,0,0,0,85.392,4.48V0A45.029,45.029,0,0,1,50.385,28.4Z" transform="translate(0.19 23.465)" fill="#509a8f"/>
    <path id="Path-8" data-name="Path" d="M85.392,8.011C70.09,46.7,15.3,46.7,0,8.011V0H85.392Z" transform="translate(0.19 15.263)" fill="#d3eee9" stroke="#fff" stroke-linecap="round" stroke-linejoin="round" stroke-miterlimit="10" stroke-width="2.278"/>
    <path id="Path-9" data-name="Path" d="M85.392,8.011C70.09,46.7,15.3,46.7,0,8.011V0H85.392Z" transform="translate(0.19 15.263)" fill="none" stroke="#23364e" stroke-linejoin="round" stroke-miterlimit="10" stroke-width="2.278"/>
    <path id="Path-10" data-name="Path" d="M13.061,10.4H.532A.519.519,0,0,1,0,9.872V.532A.519.519,0,0,1,.532,0h12.53a.519.519,0,0,1,.532.532v9.34A.543.543,0,0,1,13.061,10.4Z" transform="translate(36.108 45.411)" fill="#d3eee9" stroke="#23364e" stroke-miterlimit="10" stroke-width="2.278"/>
    <g id="Group-6" data-name="Group" transform="translate(63.028 15.188)">
      <path id="Path-11" data-name="Path" d="M5.7,20.769a3.34,3.34,0,0,1-5.7,0V0H5.7Z" transform="translate(0.038 0.076)" fill="#6dc7b6"/>
      <path id="Path-12" data-name="Path" d="M5.7,20.769a3.34,3.34,0,0,1-5.7,0V0H5.7Z" transform="translate(0.038 0.076)" fill="none" stroke="#23364e" stroke-miterlimit="10" stroke-width="2.278"/>
    </g>
    <g id="Group-7" data-name="Group" transform="translate(16.706 15.188)">
      <path id="Path-13" data-name="Path" d="M5.7,20.769a3.34,3.34,0,0,1-5.7,0V0H5.7Z" transform="translate(0.304 0.076)" fill="#6dc7b6"/>
      <path id="Path-14" data-name="Path" d="M5.7,20.769a3.34,3.34,0,0,1-5.7,0V0H5.7Z" transform="translate(0.304 0.076)" fill="none" stroke="#23364e" stroke-miterlimit="10" stroke-width="2.278"/>
    </g>
    <rect id="Rectangle" width="4.139" height="5.164" transform="translate(40.816 48.03)" fill="#509a8f" stroke="#23364e" stroke-linejoin="round" stroke-miterlimit="10" stroke-width="2.278"/>
    <path id="Path-15" data-name="Path" d="M84.025,65.116H1.4a1.4,1.4,0,0,1-1.4-1.4V1.4A1.4,1.4,0,0,1,1.4,0h82.62a1.4,1.4,0,0,1,1.4,1.4V63.75A1.419,1.419,0,0,1,84.025,65.116Z" transform="translate(0.19 15.263)" fill="none" stroke="#23364e" stroke-miterlimit="10" stroke-width="2.278"/>
  </g>
</svg>
