<svg xmlns="http://www.w3.org/2000/svg" width="34" height="22" viewBox="0 0 34 22">
  <path id="Youtube" d="M17,22h0c-.088,0-8.873-.077-11.561-.314-.129-.022-.284-.039-.463-.059A5.254,5.254,0,0,1,1.69,20.348a6.483,6.483,0,0,1-1.35-3.1A43.905,43.905,0,0,1,0,12.182V9.808A43.973,43.973,0,0,1,.34,4.746a6.482,6.482,0,0,1,1.35-3.1A4.9,4.9,0,0,1,4.882.337L5.1.317C9.8,0,16.922,0,16.993,0h.014C17.079,0,24.2,0,28.9.317l.214.02a4.9,4.9,0,0,1,3.192,1.3,6.491,6.491,0,0,1,1.352,3.1A43.927,43.927,0,0,1,34,9.808v2.373a43.949,43.949,0,0,1-.34,5.063,6.5,6.5,0,0,1-1.352,3.1,4.9,4.9,0,0,1-3.185,1.3l-.222.021C24.2,21.987,17.072,22,17,22ZM13,7l0,9,9-4.485Z" transform="translate(0 0)" fill="#ffffff"/>
</svg>
